<svg
  width="74.349503mm"
  height="3.0547853mm"
  viewBox="0 0 74.349503 3.0547853"
  version="1.1"
  xmlns="http://www.w3.org/2000/svg"
  xmlns:svg="http://www.w3.org/2000/svg"
>
  <g transform="translate(-0.66702334,-3.8662117)">
    <path
      d="m 37.869873,6.817667 c -0.94121,-0.280811 -1.98614,-1.184981 -1.75648,-2.277886 0.0423,-0.202847 0.14887,-0.397933 0.31785,-0.518583 0.37536,-0.268464 0.7493,-0.02505 0.98319,0.292805 0.19015,0.259292 0.34185,0.546453 0.44768,0.850195 -0.0392,-0.112184 0.16616,-0.480484 0.2219,-0.588787 0.10089,-0.196144 0.23318,-0.376413 0.41063,-0.509411 0.25082,-0.18803 0.68756,-0.308327 0.94403,-0.0575 0.38453,0.375355 0.14394,1.264355 -0.12206,1.640416 -0.49671,0.699559 -1.385,1.18745 -1.44674,1.168753"
    />
    <path
      d="m 4.4999933,5.695587 c 4.5017995,0.137936 9.0131197,0.106186 13.5163297,0.108303 4.50638,0.0021 9.01171,0.02787 13.51703,-0.06421 0.0709,-0.0014 0.0713,-0.109008 0,-0.110066 -4.50532,-0.09207 -9.01065,-0.06667 -13.51703,-0.06456 -4.50321,0.0021 -9.0145302,-0.02928 -13.5163297,0.108656 -0.0145,0 -0.0145,0.02152 0,0.02187"
    />
    <path
      d="m 35.395593,5.763816 c 0,0.459317 -0.37253,0.831497 -0.8315,0.831497 -0.45931,0 -0.83185,-0.37218 -0.83185,-0.831497 0,-0.459317 0.37254,-0.831497 0.83185,-0.831497 0.45897,0 0.8315,0.37218 0.8315,0.831497"
    />
    <path
      d="m 33.109063,5.763816 c 0,0.262819 -0.21308,0.47625 -0.47625,0.47625 -0.26317,0 -0.4759,-0.213431 -0.4759,-0.47625 0,-0.262819 0.21273,-0.47625 0.4759,-0.47625 0.26317,0 0.47625,0.213431 0.47625,0.47625"
    />
    <path d="m 3.3861633,6.920997 1.21638,-1.216731 -1.31128,-1.35008 z" />
    <path
      d="m 4.3711233,4.354078 c 0.27658,0.168981 0.52529,0.364419 0.76306,0.570442 0.23883,0.205669 0.46461,0.423686 0.68192,0.649816 l 0.002,0.0028 c 0.0702,0.07267 0.0681,0.188383 -0.004,0.258938 -0.20567,0.200025 -0.41557,0.395817 -0.63958,0.577498 -0.22261,0.182386 -0.45332,0.357716 -0.70873,0.507294 0.14957,-0.255411 0.3242,-0.48648 0.50729,-0.709083 0.18168,-0.224014 0.37712,-0.433917 0.5775,-0.639234 l -0.002,0.261409 c -0.21978,-0.223661 -0.43109,-0.455789 -0.62935,-0.700617 -0.19932,-0.243417 -0.38771,-0.498122 -0.54822,-0.779286"
    />
    <path
      d="m 5.4508333,4.354078 c 0.27658,0.168981 0.52529,0.364419 0.76341,0.570442 0.23883,0.205669 0.4642595,0.423686 0.6815695,0.649816 l 0.002,0.0028 c 0.0702,0.07267 0.0681,0.188383 -0.004,0.258938 -0.20567,0.200025 -0.4155695,0.395817 -0.6395795,0.577498 -0.22261,0.182386 -0.45332,0.357716 -0.70873,0.507294 0.14957,-0.255411 0.3242,-0.48648 0.50729,-0.709083 0.18168,-0.224014 0.37712,-0.433917 0.5774995,-0.639234 l -0.002,0.261409 C 6.4088633,5.610297 6.1972033,5.378169 5.9989433,5.133341 5.7996233,4.889924 5.6115933,4.635219 5.4507233,4.354055"
    />
    <path
      d="m 6.5308633,4.354078 c 0.2762195,0.168981 0.5249295,0.364419 0.7630595,0.570442 0.23883,0.205669 0.46425,0.423686 0.68192,0.649816 l 0.002,0.0028 c 0.0698,0.07267 0.0677,0.188383 -0.005,0.258938 -0.20532,0.200025 -0.41522,0.395817 -0.63959,0.577498 -0.2226,0.182386 -0.45331,0.357716 -0.70873,0.507294 0.14958,-0.255411 0.32421,-0.48648 0.5073,-0.709083 0.18168,-0.224014 0.37712,-0.433917 0.5775,-0.639234 l -0.002,0.261409 C 7.4875428,5.610297 7.2758728,5.378169 7.0776128,5.133341 6.8782928,4.889924 6.6902628,4.635219 6.5297533,4.354055"
    />
    <path
      d="m 2.9114333,5.676643 c 0,0.277636 -0.22507,0.502708 -0.50271,0.502708 -0.27728,0 -0.50235,-0.225072 -0.50235,-0.502708 0,-0.277636 0.22507,-0.502708 0.50235,-0.502708 0.27764,0 0.50271,0.225072 0.50271,0.502708"
    />
    <path
      d="m 1.3549433,5.676643 c 0,0.189794 -0.15416,0.343958 -0.34396,0.343958 -0.19014996,0 -0.34395996,-0.154164 -0.34395996,-0.343958 0,-0.189794 0.15381,-0.343958 0.34395996,-0.343958 0.1898,0 0.34396,0.154164 0.34396,0.343958"
    />
    <path
      d="m 71.183913,5.67354 c -4.5018,-0.137936 -9.01312,-0.106539 -13.51668,-0.108656 -4.50603,-0.0018 -9.01136,-0.02752 -13.51668,0.06456 -0.0709,0.0014 -0.0713,0.109008 0,0.110066 4.50532,0.09207 9.01065,0.06668 13.51668,0.06421 4.50356,-0.0021 9.01488,0.02963 13.51668,-0.108303 0.0145,0 0.0145,-0.02152 0,-0.02187"
    />
    <path
      d="m 40.288313,5.763816 c 0,0.459317 0.37253,0.831497 0.8315,0.831497 0.45931,0 0.83185,-0.37218 0.83185,-0.831497 0,-0.459317 -0.37254,-0.831497 -0.83185,-0.831497 -0.45897,0 -0.8315,0.37218 -0.8315,0.831497"
    />
    <path
      d="m 42.574833,5.763816 c 0,0.262819 0.21308,0.47625 0.47625,0.47625 0.26317,0 0.4759,-0.213431 0.4759,-0.47625 0,-0.262819 -0.21273,-0.47625 -0.4759,-0.47625 -0.26317,0 -0.47625,0.213431 -0.47625,0.47625"
    />
    <path d="m 72.297743,6.920997 -1.21638,-1.216731 1.31128,-1.35008 z" />
    <path
      d="m 71.312783,4.354078 c -0.16051,0.281164 -0.3489,0.535869 -0.54822,0.779286 -0.19826,0.244828 -0.40992,0.476956 -0.62935,0.700617 l -0.002,-0.261409 c 0.20038,0.205317 0.39582,0.41522 0.5775,0.639234 0.18309,0.222603 0.35772,0.453672 0.50729,0.709083 -0.25541,-0.149578 -0.48612,-0.324908 -0.70873,-0.507294 -0.22401,-0.181681 -0.43391,-0.377473 -0.63958,-0.577498 -0.0723,-0.07055 -0.0744,-0.186266 -0.005,-0.258938 l 0.003,-0.0028 c 0.21731,-0.22613 0.44309,-0.444147 0.68157,-0.649816 0.23812,-0.206023 0.48683,-0.401461 0.76341,-0.570442"
    />
    <path
      d="m 70.232753,4.354078 c -0.16051,0.281164 -0.34854,0.535869 -0.54786,0.779286 -0.19826,0.244828 -0.40993,0.476956 -0.62971,0.700617 l -0.002,-0.261409 c 0.20038,0.205317 0.39582,0.41522 0.5775,0.639234 0.18309,0.222603 0.35772,0.453672 0.5073,0.709083 -0.25542,-0.149578 -0.48613,-0.324908 -0.70873,-0.507294 -0.22402,-0.181681 -0.43427,-0.377473 -0.63959,-0.577498 -0.0723,-0.07055 -0.0744,-0.186266 -0.005,-0.258938 l 0.002,-0.0028 c 0.21767,-0.22613 0.44309,-0.444147 0.68192,-0.649816 0.23813,-0.206023 0.48684,-0.401461 0.76306,-0.570442"
    />
    <path
      d="m 69.153043,4.354078 c -0.16051,0.281164 -0.34854,0.535869 -0.54786,0.779286 -0.19826,0.244828 -0.40993,0.476956 -0.62971,0.700617 l -0.002,-0.261409 c 0.20038,0.205317 0.39582,0.41522 0.5775,0.639234 0.18309,0.222603 0.35772,0.453672 0.5073,0.709083 -0.25542,-0.149578 -0.48613,-0.324908 -0.70873,-0.507294 -0.22437,-0.181681 -0.43427,-0.377473 -0.63959,-0.577498 -0.0723,-0.07055 -0.0744,-0.186266 -0.005,-0.258938 l 0.002,-0.0028 c 0.21767,-0.22613 0.44309,-0.444147 0.68192,-0.649816 0.23813,-0.206023 0.48684,-0.401461 0.76306,-0.570442"
    />
    <path
      d="m 72.772473,5.676643 c 0,0.277636 0.22507,0.502708 0.50271,0.502708 0.27728,0 0.50235,-0.225072 0.50235,-0.502708 0,-0.277636 -0.22507,-0.502708 -0.50235,-0.502708 -0.27764,0 -0.50271,0.225072 -0.50271,0.502708"
    />
    <path
      d="m 74.328963,5.676643 c 0,0.189794 0.15416,0.343958 0.34396,0.343958 0.18979,0 0.3436,-0.154164 0.3436,-0.343958 0,-0.189794 -0.15381,-0.343958 -0.3436,-0.343958 -0.1898,0 -0.34396,0.154164 -0.34396,0.343958"
    />
  </g>
</svg>
