<svg
  width="3.5579045mm"
  height="2.9519768mm"
  viewBox="0 0 3.5579045 2.9519768"
  version="1.1"
  xmlns="http://www.w3.org/2000/svg"
  xmlns:svg="http://www.w3.org/2000/svg"
>
  <g transform="translate(-36.081268,-3.8662117)">
    <path
      d="m 37.869873,6.817667 c -0.94121,-0.280811 -1.98614,-1.184981 -1.75648,-2.277886 0.0423,-0.202847 0.14887,-0.397933 0.31785,-0.518583 0.37536,-0.268464 0.7493,-0.02505 0.98319,0.292805 0.19015,0.259292 0.34185,0.546453 0.44768,0.850195 -0.0392,-0.112184 0.16616,-0.480484 0.2219,-0.588787 0.10089,-0.196144 0.23318,-0.376413 0.41063,-0.509411 0.25082,-0.18803 0.68756,-0.308327 0.94403,-0.0575 0.38453,0.375355 0.14394,1.264355 -0.12206,1.640416 -0.49671,0.699559 -1.385,1.18745 -1.44674,1.168753"
    />
  </g>
</svg>
