<svg
  width="34.728569mm"
  height="2.566942mm"
  viewBox="0 0 34.728569 2.566942"
  version="1.1"
  xmlns="http://www.w3.org/2000/svg"
  xmlns:svg="http://www.w3.org/2000/svg"
>
  <g transform="translate(-0.66702334,-4.354055)">
    <path
      d="m 4.4999933,5.695587 c 4.5017995,0.137936 9.0131197,0.106186 13.5163297,0.108303 4.50638,0.0021 9.01171,0.02787 13.51703,-0.06421 0.0709,-0.0014 0.0713,-0.109008 0,-0.110066 -4.50532,-0.09207 -9.01065,-0.06667 -13.51703,-0.06456 -4.50321,0.0021 -9.0145302,-0.02928 -13.5163297,0.108656 -0.0145,0 -0.0145,0.02152 0,0.02187"
    />
    <path
      d="m 35.395593,5.763816 c 0,0.459317 -0.37253,0.831497 -0.8315,0.831497 -0.45931,0 -0.83185,-0.37218 -0.83185,-0.831497 0,-0.459317 0.37254,-0.831497 0.83185,-0.831497 0.45897,0 0.8315,0.37218 0.8315,0.831497"
    />
    <path
      d="m 33.109063,5.763816 c 0,0.262819 -0.21308,0.47625 -0.47625,0.47625 -0.26317,0 -0.4759,-0.213431 -0.4759,-0.47625 0,-0.262819 0.21273,-0.47625 0.4759,-0.47625 0.26317,0 0.47625,0.213431 0.47625,0.47625"
    />
    <path d="m 3.3861633,6.920997 1.21638,-1.216731 -1.31128,-1.35008 z" />
    <path
      d="m 4.3711233,4.354078 c 0.27658,0.168981 0.52529,0.364419 0.76306,0.570442 0.23883,0.205669 0.46461,0.423686 0.68192,0.649816 l 0.002,0.0028 c 0.0702,0.07267 0.0681,0.188383 -0.004,0.258938 -0.20567,0.200025 -0.41557,0.395817 -0.63958,0.577498 -0.22261,0.182386 -0.45332,0.357716 -0.70873,0.507294 0.14957,-0.255411 0.3242,-0.48648 0.50729,-0.709083 0.18168,-0.224014 0.37712,-0.433917 0.5775,-0.639234 l -0.002,0.261409 c -0.21978,-0.223661 -0.43109,-0.455789 -0.62935,-0.700617 -0.19932,-0.243417 -0.38771,-0.498122 -0.54822,-0.779286"
    />
    <path
      d="m 5.4508333,4.354078 c 0.27658,0.168981 0.52529,0.364419 0.76341,0.570442 0.23883,0.205669 0.4642595,0.423686 0.6815695,0.649816 l 0.002,0.0028 c 0.0702,0.07267 0.0681,0.188383 -0.004,0.258938 -0.20567,0.200025 -0.4155695,0.395817 -0.6395795,0.577498 -0.22261,0.182386 -0.45332,0.357716 -0.70873,0.507294 0.14957,-0.255411 0.3242,-0.48648 0.50729,-0.709083 0.18168,-0.224014 0.37712,-0.433917 0.5774995,-0.639234 l -0.002,0.261409 C 6.4088633,5.610297 6.1972033,5.378169 5.9989433,5.133341 5.7996233,4.889924 5.6115933,4.635219 5.4507233,4.354055"
    />
    <path
      d="m 6.5308633,4.354078 c 0.2762195,0.168981 0.5249295,0.364419 0.7630595,0.570442 0.23883,0.205669 0.46425,0.423686 0.68192,0.649816 l 0.002,0.0028 c 0.0698,0.07267 0.0677,0.188383 -0.005,0.258938 -0.20532,0.200025 -0.41522,0.395817 -0.63959,0.577498 -0.2226,0.182386 -0.45331,0.357716 -0.70873,0.507294 0.14958,-0.255411 0.32421,-0.48648 0.5073,-0.709083 0.18168,-0.224014 0.37712,-0.433917 0.5775,-0.639234 l -0.002,0.261409 C 7.4875428,5.610297 7.2758728,5.378169 7.0776128,5.133341 6.8782928,4.889924 6.6902628,4.635219 6.5297533,4.354055"
    />
    <path
      d="m 2.9114333,5.676643 c 0,0.277636 -0.22507,0.502708 -0.50271,0.502708 -0.27728,0 -0.50235,-0.225072 -0.50235,-0.502708 0,-0.277636 0.22507,-0.502708 0.50235,-0.502708 0.27764,0 0.50271,0.225072 0.50271,0.502708"
    />
    <path
      d="m 1.3549433,5.676643 c 0,0.189794 -0.15416,0.343958 -0.34396,0.343958 -0.19014996,0 -0.34395996,-0.154164 -0.34395996,-0.343958 0,-0.189794 0.15381,-0.343958 0.34395996,-0.343958 0.1898,0 0.34396,0.154164 0.34396,0.343958"
    />
  </g>
</svg>
