<svg
  width="34.72821mm"
  height="2.5669191mm"
  viewBox="0 0 34.728211 2.5669191"
  version="1.1"
  xmlns="http://www.w3.org/2000/svg"
  xmlns:svg="http://www.w3.org/2000/svg"
>
 
  <g transform="translate(-40.288313,-4.354078)">
    <path
      d="m 71.183913,5.67354 c -4.5018,-0.137936 -9.01312,-0.106539 -13.51668,-0.108656 -4.50603,-0.0018 -9.01136,-0.02752 -13.51668,0.06456 -0.0709,0.0014 -0.0713,0.109008 0,0.110066 4.50532,0.09207 9.01065,0.06668 13.51668,0.06421 4.50356,-0.0021 9.01488,0.02963 13.51668,-0.108303 0.0145,0 0.0145,-0.02152 0,-0.02187"
    />
    <path
      d="m 40.288313,5.763816 c 0,0.459317 0.37253,0.831497 0.8315,0.831497 0.45931,0 0.83185,-0.37218 0.83185,-0.831497 0,-0.459317 -0.37254,-0.831497 -0.83185,-0.831497 -0.45897,0 -0.8315,0.37218 -0.8315,0.831497"
    />
    <path
      d="m 42.574833,5.763816 c 0,0.262819 0.21308,0.47625 0.47625,0.47625 0.26317,0 0.4759,-0.213431 0.4759,-0.47625 0,-0.262819 -0.21273,-0.47625 -0.4759,-0.47625 -0.26317,0 -0.47625,0.213431 -0.47625,0.47625"
    />
    <path d="m 72.297743,6.920997 -1.21638,-1.216731 1.31128,-1.35008 z" />
    <path
      d="m 71.312783,4.354078 c -0.16051,0.281164 -0.3489,0.535869 -0.54822,0.779286 -0.19826,0.244828 -0.40992,0.476956 -0.62935,0.700617 l -0.002,-0.261409 c 0.20038,0.205317 0.39582,0.41522 0.5775,0.639234 0.18309,0.222603 0.35772,0.453672 0.50729,0.709083 -0.25541,-0.149578 -0.48612,-0.324908 -0.70873,-0.507294 -0.22401,-0.181681 -0.43391,-0.377473 -0.63958,-0.577498 -0.0723,-0.07055 -0.0744,-0.186266 -0.005,-0.258938 l 0.003,-0.0028 c 0.21731,-0.22613 0.44309,-0.444147 0.68157,-0.649816 0.23812,-0.206023 0.48683,-0.401461 0.76341,-0.570442"
    />
    <path
      d="m 70.232753,4.354078 c -0.16051,0.281164 -0.34854,0.535869 -0.54786,0.779286 -0.19826,0.244828 -0.40993,0.476956 -0.62971,0.700617 l -0.002,-0.261409 c 0.20038,0.205317 0.39582,0.41522 0.5775,0.639234 0.18309,0.222603 0.35772,0.453672 0.5073,0.709083 -0.25542,-0.149578 -0.48613,-0.324908 -0.70873,-0.507294 -0.22402,-0.181681 -0.43427,-0.377473 -0.63959,-0.577498 -0.0723,-0.07055 -0.0744,-0.186266 -0.005,-0.258938 l 0.002,-0.0028 c 0.21767,-0.22613 0.44309,-0.444147 0.68192,-0.649816 0.23813,-0.206023 0.48684,-0.401461 0.76306,-0.570442"
    />
    <path
      d="m 69.153043,4.354078 c -0.16051,0.281164 -0.34854,0.535869 -0.54786,0.779286 -0.19826,0.244828 -0.40993,0.476956 -0.62971,0.700617 l -0.002,-0.261409 c 0.20038,0.205317 0.39582,0.41522 0.5775,0.639234 0.18309,0.222603 0.35772,0.453672 0.5073,0.709083 -0.25542,-0.149578 -0.48613,-0.324908 -0.70873,-0.507294 -0.22437,-0.181681 -0.43427,-0.377473 -0.63959,-0.577498 -0.0723,-0.07055 -0.0744,-0.186266 -0.005,-0.258938 l 0.002,-0.0028 c 0.21767,-0.22613 0.44309,-0.444147 0.68192,-0.649816 0.23813,-0.206023 0.48684,-0.401461 0.76306,-0.570442"
    />
    <path
      d="m 72.772473,5.676643 c 0,0.277636 0.22507,0.502708 0.50271,0.502708 0.27728,0 0.50235,-0.225072 0.50235,-0.502708 0,-0.277636 -0.22507,-0.502708 -0.50235,-0.502708 -0.27764,0 -0.50271,0.225072 -0.50271,0.502708"
    />
    <path
      d="m 74.328963,5.676643 c 0,0.189794 0.15416,0.343958 0.34396,0.343958 0.18979,0 0.3436,-0.154164 0.3436,-0.343958 0,-0.189794 -0.15381,-0.343958 -0.3436,-0.343958 -0.1898,0 -0.34396,0.154164 -0.34396,0.343958"
    />
  </g>
</svg>
