<?xml version="1.0" encoding="UTF-8" ?>
<svg
  width="700pt"
  height="700pt"
  version="1.1"
  viewBox="0 0 700 550"
  xmlns="http://www.w3.org/2000/svg"
  xmlns:xlink="http://www.w3.org/1999/xlink"
>
 
 <g>
  <path
      d="m195.13 233.82-5.8633-13.637 7.9062-12.551c1.1367-1.8047 1.1523-4.0938 0.039063-5.9141-1.1094-1.8125-3.125-2.832-5.2852-2.6562l-14.773 1.3594-9.4922-11.402c-1.3672-1.6406-3.5625-2.375-5.6094-1.8633-2.0703 0.5-3.6836 2.1328-4.1562 4.2109l-3.2773 14.469-13.777 5.5039c-1.9805 0.79687-3.3359 2.6445-3.5039 4.7656-0.16406 2.1289 0.89062 4.1602 2.7227 5.2539l12.75 7.582 0.97266 14.805c0.14062 2.1289 1.4766 3.9922 3.4453 4.8047 0.69531 0.28516 1.4219 0.42578 2.1445 0.42578 1.332 0 2.6562-0.47656 3.6914-1.3906l11.156-9.7812 14.387 3.6406c2.0508 0.51953 4.2578-0.16797 5.6328-1.793 1.3867-1.6094 1.7305-3.8711 0.89062-5.832zm-17.316-11.918 2.543 5.9141-6.2383-1.5781c-1.7852-0.44922-3.6797 0.003906-5.0625 1.2227l-4.8398 4.2461-0.42188-6.418c-0.11719-1.8438-1.1406-3.5039-2.7266-4.4453l-5.5273-3.293 5.9688-2.3867c1.7148-0.68359 2.9727-2.168 3.3828-3.9648l1.4219-6.2773 4.1172 4.9492c1.1797 1.418 2.9297 2.1719 4.8164 1.9922l6.4062-0.58984-3.4258 5.4414c-0.99219 1.5547-1.1406 3.4961-0.41406 5.1875z"
    />
  <path
      d="m558.75 201.72c-1.1094-1.8125-3.1016-2.832-5.2852-2.6562l-14.777 1.3594-9.4922-11.402c-1.3672-1.6406-3.5664-2.375-5.6094-1.8633-2.0703 0.50391-3.6836 2.1328-4.1562 4.2109l-3.2695 14.469-13.777 5.5039c-1.9805 0.79688-3.3359 2.6367-3.5039 4.7656-0.16406 2.1289 0.89062 4.1602 2.7148 5.2539l12.75 7.582 0.97266 14.805c0.14062 2.1289 1.4766 3.9922 3.4453 4.8047 0.69531 0.28516 1.4219 0.42578 2.1445 0.42578 1.332 0 2.6562-0.47656 3.6914-1.3906l11.156-9.7812 14.387 3.6406c2.0508 0.51953 4.25-0.16797 5.6328-1.793 1.3828-1.625 1.7305-3.8867 0.88672-5.8477l-5.8633-13.637 7.9141-12.551c1.1445-1.7891 1.1602-4.0781 0.039062-5.8984zm-19.402 20.18 2.543 5.9141-6.2383-1.5781c-1.7812-0.44922-3.6719 0.003906-5.0625 1.2227l-4.8398 4.2461-0.42188-6.418c-0.11719-1.8438-1.1406-3.5039-2.7227-4.4453l-5.5273-3.2891 5.9688-2.3906c1.7148-0.68359 2.9727-2.168 3.3828-3.9648l1.418-6.2734 4.1172 4.9453c1.1797 1.418 2.9414 2.1719 4.8164 1.9922l6.4062-0.58984-3.4258 5.4414c-0.98438 1.5547-1.1367 3.4961-0.41406 5.1875z"
    />
  <path
      d="m568.23 97.242c-0.30078-2.1094-1.7734-3.8633-3.8086-4.5312l-14.113-4.5938-4.207-14.223c-0.60547-2.043-2.3203-3.5742-4.418-3.9297-2.082-0.35156-4.2227 0.5-5.4805 2.2188l-8.7344 12-14.828-0.39062c-2.1797 0.003906-4.1094 1.1016-5.1016 2.9922-0.99609 1.8867-0.82812 4.1719 0.42188 5.8984l8.7148 12.012-4.957 13.988c-0.71094 2.0039-0.22266 4.25 1.2656 5.7734 1.4961 1.5234 3.7109 2.0898 5.7383 1.4219l14.113-4.5703 11.77 9.0312c1.0039 0.76562 2.207 1.1602 3.4102 1.1602 0.83984 0 1.6914-0.19141 2.4688-0.57812 1.9141-0.94531 3.1289-2.8906 3.1289-5.0195l0.015625-14.84 12.23-8.3984c1.7539-1.2148 2.6719-3.3164 2.3711-5.4219zm-23.367 6.25c-1.5195 1.0469-2.4297 2.7656-2.4297 4.6094l-0.003907 6.4336-5.1016-3.9141c-0.99609-0.76172-2.1953-1.1602-3.4102-1.1602-0.58203 0-1.1602 0.089843-1.7305 0.27344l-6.1211 1.9805 2.1523-6.0664c0.61719-1.7422 0.33984-3.6641-0.74609-5.1562l-3.7812-5.207 6.4297 0.16797c1.875 0.066406 3.5938-0.81641 4.6758-2.3008l3.7852-5.207 1.8242 6.1719c0.52734 1.7695 1.8828 3.1641 3.6328 3.7422l6.1211 1.9883z"
    />
  <path
      d="m429.46 152.61c4.6953 5.3281-3.2969 12.367-7.9922 7.0391-4.6953-5.3281 3.3008-12.371 7.9922-7.0391"
    />
  <path
      d="m472.62 102.05c4.6953 5.3281-3.2969 12.367-7.9922 7.0391-4.6914-5.3281 3.3008-12.367 7.9922-7.0391"
    />
  <path
      d="m392.27 59.219c4.6953 5.3281-3.3008 12.367-7.9922 7.0391-4.6953-5.3281 3.2969-12.367 7.9922-7.0391"
    />
  <path
      d="m140.3 133.75c4.6914 5.3281-3.3008 12.371-7.9922 7.043-4.6953-5.3281 3.2969-12.371 7.9922-7.043"
    />
  <path
      d="m296.77 151.52c4.6914 5.3281-3.3008 12.371-7.9922 7.043-4.6953-5.3281 3.2969-12.371 7.9922-7.043"
    />
  <path
      d="m206.73 80c-6.9336-7.875-19-8.6523-26.887-1.7031-7.875 6.9375-8.6406 19-1.7031 26.887 3.7578 4.2656 9.0156 6.4453 14.309 6.4453 4.4727 0 8.9648-1.5625 12.578-4.75 7.8789-6.9297 8.6406-18.992 1.7031-26.879zm-9.1055 18.48c-3.2383 2.8555-8.2109 2.5547-11.078-0.69922-2.8633-3.2461-2.5469-8.2227 0.69922-11.078 1.4883-1.3086 3.3359-1.9609 5.1875-1.9609 2.1797 0 4.3398 0.89453 5.8984 2.6602 2.8555 3.25 2.543 8.2227-0.70703 11.078z"
    />
  <path
      d="m352.6 225.17c-10.039-11.395-27.492-12.488-38.898-2.4648-11.402 10.039-12.504 27.492-2.457 38.898 5.4375 6.1758 13.047 9.3281 20.691 9.3281 6.4727 0 12.977-2.2617 18.207-6.8711 11.395-10.039 12.5-27.484 2.457-38.891zm-9.8672 30.484c-6.7578 5.9648-17.137 5.3047-23.09-1.4609-2.8906-3.2773-4.3242-7.4883-4.0547-11.844 0.28125-4.3633 2.2305-8.3555 5.5117-11.238 3.1016-2.7344 6.9609-4.082 10.809-4.082 4.543 0 9.0547 1.875 12.281 5.5391 5.9648 6.7734 5.3086 17.133-1.457 23.086z"
    />
  <path
      d="m379.38 332.83c0.49219-7.8008-2.0781-15.32-7.2461-21.191-10.656-12.102-29.18-13.273-41.289-2.6094-5.8633 5.1641-9.3633 12.305-9.8555 20.098-0.49219 7.8008 2.0781 15.32 7.2461 21.184 5.1641 5.8633 12.297 9.3672 20.098 9.8633 0.63281 0.039063 1.2656 0.0625 1.8945 0.0625 7.1172 0 13.906-2.5586 19.293-7.3086 5.8594-5.1641 9.3672-12.305 9.8594-20.098zm-17.266 11.691c-3.6172 3.1875-8.3008 4.8047-13.07 4.4688-4.8086-0.30859-9.2188-2.4648-12.41-6.0859-6.5781-7.4648-5.8594-18.895 1.6133-25.48 3.4219-3.0117 7.6836-4.4961 11.93-4.4961 5.0078 0 9.9922 2.0664 13.559 6.1094 6.5781 7.4727 5.8477 18.902-1.6211 25.484z"
    />
  <path
      d="m144.14 360.19c0.41406 0.027344 0.82422 0.039063 1.2383 0.039063 4.6328 0 9.0547-1.6641 12.562-4.7539 3.8203-3.3672 6.0977-8.0117 6.418-13.094 0.32422-5.0742-1.3477-9.9727-4.7109-13.793h-0.003906c-6.9375-7.875-19-8.6406-26.887-1.707-3.8203 3.3672-6.0977 8.0117-6.418 13.094-0.32422 5.0742 1.3555 9.9727 4.7148 13.793 3.3633 3.8203 8.0117 6.1016 13.086 6.4219zm-3.9805-24.891c1.4883-1.3086 3.3359-1.9609 5.1875-1.9609 2.1797 0 4.3398 0.89453 5.8906 2.6602 1.3906 1.5664 2.0781 3.5898 1.9492 5.6836-0.13281 2.0898-1.0703 4.0039-2.6484 5.3945-1.5664 1.3828-3.5938 2.0781-5.6836 1.9414-2.0898-0.12891-4.0039-1.0703-5.3945-2.6484-1.3828-1.5742-2.0781-3.5938-1.9414-5.6836 0.12891-2.0938 1.0664-4.0039 2.6406-5.3867z"
    />
  <path
      d="m372.98 104.14c0.32422-5.0742-1.3477-9.9727-4.7148-13.793-3.3672-3.8203-8.0117-6.0977-13.086-6.418-5.1055-0.34766-9.9805 1.3477-13.797 4.7148-3.8203 3.3672-6.0977 8.0117-6.418 13.086-0.32422 5.0781 1.3555 9.9805 4.7227 13.797 3.3672 3.8203 8.0117 6.0977 13.086 6.418 0.41016 0.027343 0.81641 0.039062 1.2305 0.039062 4.6328 0 9.0547-1.668 12.562-4.7617 3.8125-3.3633 6.0898-8.0078 6.4141-13.082zm-13.824 4.6875c-1.5625 1.3789-3.5391 2.0898-5.6797 1.9414-2.0938-0.12891-4.0078-1.0703-5.3984-2.6484-1.3828-1.5664-2.0703-3.5898-1.9414-5.6836 0.12891-2.0898 1.0703-4.0039 2.6484-5.3945 1.4453-1.2695 3.2656-1.9609 5.1758-1.9609 0.16797 0 0.33984 0.003906 0.50781 0.015624 2.0898 0.12891 4.0039 1.0703 5.3867 2.6484h0.003906c1.3828 1.5664 2.0703 3.5898 1.9414 5.6797-0.12891 2.0977-1.0703 4.0117-2.6445 5.4023z"
    />
  <path
      d="m269.2 60.414c-2.3242-2.0312-5.8594-1.8203-7.9062 0.50391-2.0391 2.3242-1.8125 5.8633 0.50391 7.9062 57.43 50.551 63.672 111.96 63.727 112.58 0.26953 2.9102 2.7031 5.0898 5.5703 5.0898 0.16797 0 0.33984-0.003906 0.50781-0.023438 3.0781-0.28125 5.3477-2.9922 5.0742-6.0703-0.23828-2.6797-6.543-66.34-67.477-119.99z"
    />
  <path
      d="m376.45 180.14c0.15234 2.9844 2.6328 5.3047 5.5898 5.3047 0.09375 0 0.19141 0 0.28516-0.003906 3.0859-0.15234 5.4648-2.7812 5.3125-5.8672-0.039063-0.71875-2.7539-72 60.367-112.59 2.6055-1.6758 3.3555-5.1367 1.6797-7.7383-1.668-2.5977-5.125-3.3438-7.7383-1.6797-68.715 44.18-65.664 119.39-65.496 122.57z"
    />
  <path
      d="m209.82 138.25h-0.011718c-3.0898 0-5.5938 2.4961-5.6016 5.5898-0.003906 3.0977 2.4961 5.6055 5.5898 5.6094 36.004 0.054688 56.773 37.492 56.98 37.871 1.0117 1.8633 2.9414 2.9219 4.9297 2.9219 0.90234 0 1.8125-0.21094 2.6602-0.67188 2.7148-1.4727 3.7305-4.8594 2.2617-7.582-0.96484-1.7812-24.07-43.676-66.809-43.738z"
    />
  <path
      d="m428.04 180.31c-1.6172 2.6328-0.80078 6.0742 1.832 7.6953 0.91406 0.56641 1.9336 0.83594 2.9297 0.83594 1.875 0 3.7109-0.94531 4.7773-2.6641 0.28516-0.45313 28.699-45.617 65.609-36.949 3 0.68359 6.0195-1.1602 6.7305-4.1719 0.70703-3.0117-1.1641-6.0273-4.1719-6.7305-44.902-10.504-76.391 39.836-77.707 41.984z"
    />
  <path
      d="m443.49 310.33c1.0742 1.293 2.6641 2.0156 4.3047 2.0156 0.4375 0 0.875-0.050781 1.3047-0.15234 2.0703-0.5 3.6836-2.1328 4.1562-4.2109l5.1914-22.934 21.828-8.7266c1.9805-0.79687 3.3359-2.6367 3.5039-4.7656 0.16406-2.1289-0.88672-4.1602-2.7148-5.2539l-20.203-12.02-1.5508-23.457c-0.14062-2.1289-1.4766-3.9883-3.4492-4.8008-1.9648-0.8125-4.2266-0.44141-5.8281 0.96484l-17.672 15.508-22.793-5.7734c-2.043-0.51562-4.25 0.17188-5.6328 1.793-1.3828 1.625-1.7305 3.8867-0.88672 5.8477l9.2852 21.598-12.531 19.891c-1.1367 1.8047-1.1523 4.0938-0.039062 5.9141s3.125 2.8516 5.2852 2.6562l23.414-2.1562zm-19.715-46.074-5.9648-13.883 14.645 3.7109c1.7812 0.45312 3.6797 0 5.0625-1.2227l11.355-9.9609 1.0039 15.074c0.125 1.8359 1.1406 3.5 2.7227 4.4414l12.98 7.7227-14.027 5.6055c-1.7148 0.68359-2.9727 2.168-3.3828 3.9648l-3.3359 14.734-9.6641-11.602c-1.0703-1.2812-2.6484-2.0156-4.3047-2.0156-0.16797 0-0.33984 0.003906-0.51562 0.023437l-15.043 1.3828 8.0547-12.777c0.98438-1.5664 1.1445-3.5156 0.41406-5.1992z"
    />
  <path
      d="m207.95 322.97c1.1133 1.8203 3.125 2.8633 5.2852 2.6562l20.41-1.875 13.113 15.746c1.0742 1.293 2.6641 2.0156 4.3047 2.0156 0.4375 0 0.875-0.050781 1.3086-0.15234 2.0664-0.50391 3.6797-2.1328 4.1484-4.2109l4.5195-19.988 19.027-7.5977c1.9805-0.79688 3.3359-2.6367 3.5039-4.7656 0.16406-2.1211-0.88672-4.1602-2.7148-5.2539l-17.617-10.484-1.3477-20.445c-0.14062-2.1289-1.4766-3.9883-3.4453-4.8008-1.9805-0.8125-4.2344-0.44922-5.8359 0.96484l-15.406 13.512-19.867-5.0352c-2.0781-0.52734-4.2578 0.16797-5.6406 1.793-1.3828 1.625-1.7305 3.8867-0.88672 5.8477l8.0938 18.832-10.926 17.336c-1.125 1.7969-1.1406 4.0938-0.027343 5.9062zm22.418-24.965-4.7773-11.109 11.723 2.9727c1.8047 0.45312 3.6797 0 5.0664-1.2227l9.0898-7.9727 0.80078 12.062c0.11719 1.8359 1.1406 3.5 2.7227 4.4414l10.387 6.1836-11.227 4.4844c-1.7148 0.68359-2.9727 2.168-3.3828 3.9648l-2.6641 11.789-7.7383-9.2852c-1.0703-1.2812-2.6562-2.0156-4.3047-2.0156-0.16797 0-0.33984 0.003906-0.51562 0.023437l-12.035 1.1094 6.4414-10.23c0.98438-1.5625 1.1406-3.5039 0.41406-5.1953z"
    />
  <path
      d="m187.3 423.49c-1.4883-1.5234-3.7188-2.082-5.7383-1.4219l-14.113 4.5703-11.766-9.0352c-1.6953-1.3008-3.9883-1.5195-5.8867-0.58203-1.9141 0.94531-3.1289 2.8906-3.1289 5.0195l-0.015624 14.836-12.23 8.3984c-1.7539 1.2109-2.6758 3.3086-2.3672 5.4141 0.30078 2.1094 1.7734 3.8633 3.8086 4.5312l14.113 4.5977 4.2109 14.223c0.60547 2.0391 2.3203 3.5664 4.418 3.9258 0.32031 0.054687 0.63281 0.085937 0.95313 0.085937 1.7695 0 3.4609-0.83984 4.5312-2.3008l8.7305-11.996 14.828 0.38672c2.0664 0.0625 4.1094-1.1016 5.1016-2.9922 0.99609-1.8867 0.82812-4.1719-0.42188-5.8984l-8.7148-12.012 4.957-13.984c0.70703-1.9961 0.22266-4.2344-1.2695-5.7656zm-17.137 28.992c-1.7852 0.039062-3.5938 0.81641-4.6758 2.3008l-3.7852 5.2031-1.8242-6.1719c-0.52734-1.7656-1.8828-3.1602-3.6328-3.7344l-6.1211-1.9922 5.3047-3.6406c1.5195-1.0469 2.4297-2.7656 2.4297-4.6094l0.003906-6.4297 5.1016 3.9141c1.4688 1.1133 3.3711 1.457 5.1406 0.88672l6.1211-1.9805-2.1523 6.0586c-0.61719 1.7422-0.33984 3.6641 0.74609 5.1562l3.7812 5.2148z"
    />
  <path
      d="m283.48 393.17c4.6953 5.3281-3.2969 12.367-7.9922 7.0391-4.6914-5.3281 3.3008-12.367 7.9922-7.0391"
    />
  <path
      d="m240.32 443.72c4.6914 5.3281-3.3008 12.371-7.9922 7.0391-4.6953-5.3281 3.2969-12.367 7.9922-7.0391"
    />
  <path
      d="m320.68 486.55c4.6953 5.3281-3.2969 12.367-7.9922 7.0391-4.6914-5.3281 3.3008-12.367 7.9922-7.0391"
    />
  <path
      d="m566.68 406.68c4.6953 5.3281-3.2969 12.371-7.9922 7.043-4.6953-5.3281 3.3008-12.371 7.9922-7.043"
    />
  <path
      d="m416.17 394.23c4.6914 5.3281-3.3008 12.367-7.9922 7.0391-4.6953-5.3281 3.2969-12.367 7.9922-7.0391"
    />
  <path
      d="m511.29 479.25c0.41016 0.027344 0.81641 0.039062 1.2305 0.039062 4.6328 0 9.0547-1.6641 12.562-4.7539 3.8203-3.3672 6.0977-8.0117 6.418-13.086 0.32422-5.0781-1.3555-9.9805-4.7148-13.797-3.3672-3.8203-8.0117-6.0977-13.086-6.418-5.1055-0.33203-9.9805 1.3555-13.797 4.7227-3.8203 3.3672-6.0977 8.0117-6.418 13.086-0.32031 5.0742 1.3555 9.9727 4.7227 13.793 3.3594 3.8164 8.0078 6.0898 13.082 6.4141zm-3.9844-24.895c1.4453-1.2695 3.2656-1.9609 5.1758-1.9609 0.16797 0 0.33984 0.003906 0.50781 0.015625 2.0898 0.12891 4.0039 1.0703 5.3945 2.6484 1.3828 1.5664 2.0703 3.5898 1.9414 5.6836-0.12891 2.0898-1.0703 4.0039-2.6484 5.3945-1.5625 1.3789-3.5391 2.0781-5.6797 1.9414-2.0938-0.12891-4.0078-1.0703-5.3984-2.6484-1.3828-1.5664-2.0703-3.5898-1.9414-5.6797 0.13672-2.0898 1.0742-4.0078 2.6484-5.3945z"
    />
  <path
      d="m531.44 315.14c-3.3672-3.8203-8.0117-6.0977-13.086-6.418-5.1172-0.33594-9.9805 1.3555-13.797 4.7227-7.875 6.9375-8.6406 19-1.707 26.879h0.003907c3.3672 3.8203 8.0117 6.0977 13.086 6.418 0.41016 0.027344 0.81641 0.039062 1.2305 0.039062 4.6328 0 9.0547-1.6641 12.562-4.7539 3.8203-3.3672 6.0977-8.0117 6.418-13.086 0.32812-5.082-1.3516-9.9805-4.7109-13.801zm-9.1133 18.48c-1.5664 1.3789-3.5273 2.0664-5.6797 1.9414-2.0938-0.12891-4.0078-1.0703-5.3984-2.6484-2.8555-3.2461-2.5352-8.2148 0.70703-11.078 1.5742-1.3789 3.6172-2.0547 5.6836-1.9414 2.0898 0.12891 4.0039 1.0703 5.3945 2.6484 1.3828 1.5664 2.0703 3.5898 1.9414 5.6836-0.12891 2.0898-1.0703 4.0078-2.6484 5.3945z"
    />
  <path
      d="m336.57 438.29c-3.8203 3.3672-6.0977 8.0117-6.418 13.086-0.32422 5.0781 1.3555 9.9805 4.7227 13.797 3.7578 4.2656 9.0156 6.4453 14.301 6.4453 4.4727 0 8.9648-1.5625 12.578-4.75 3.8203-3.3672 6.0977-8.0117 6.418-13.086 0.32422-5.0781-1.3555-9.9805-4.7148-13.797-6.9375-7.8633-18.988-8.6523-26.887-1.6953zm20.418 14.781c-0.12891 2.0938-1.0703 4.0078-2.6484 5.3945-3.2422 2.8633-8.2148 2.543-11.078-0.69922-1.3828-1.5664-2.0703-3.5898-1.9414-5.6836 0.12891-2.0938 1.0703-4.0078 2.6484-5.3945 1.4453-1.2773 3.2656-1.9609 5.1758-1.9609 0.16797 0 0.33984 0 0.50781 0.011719 2.0898 0.13281 4.0039 1.0703 5.3945 2.6484 1.3828 1.5742 2.0703 3.5898 1.9414 5.6836z"
    />
  <path
      d="m435.74 501.74c1.0625 0.93359 2.3867 1.3945 3.7031 1.3945 1.5508 0 3.0977-0.63672 4.207-1.8984 2.0391-2.3242 1.8125-5.8633-0.50391-7.9062-57.434-50.551-63.672-111.96-63.727-112.58-0.28516-3.0742-3.0234-5.3438-6.082-5.0664-3.0781 0.28125-5.3477 2.9922-5.0742 6.0703 0.23828 2.6758 6.5352 66.34 67.477 119.99z"
    />
  <path
      d="m328.48 382.02c-0.15625-3.0781-2.8125-5.4805-5.875-5.2969-3.0859 0.15234-5.4648 2.7812-5.3125 5.8672 0.039062 0.71875 2.7539 71.992-60.367 112.58-2.6055 1.6758-3.3555 5.1367-1.6797 7.7383 1.0625 1.6641 2.8711 2.5703 4.7148 2.5703 1.043 0 2.082-0.29297 3.0234-0.89062 68.711-44.18 65.664-119.39 65.496-122.57z"
    />
  <path
      d="m495.12 423.91h0.011719c3.0898 0 5.5938-2.4961 5.6016-5.5898 0.003907-3.0977-2.4961-5.6055-5.5898-5.6094-36.004-0.054688-56.773-37.492-56.98-37.871-1.4727-2.7109-4.8945-3.7227-7.582-2.25-2.7148 1.4727-3.7305 4.8594-2.2617 7.582 0.95312 1.7812 24.062 43.676 66.801 43.738z"
    />
  <path
      d="m276.9 381.84c1.6172-2.6328 0.80078-6.0742-1.832-7.6953-2.6328-1.625-6.082-0.8125-7.707 1.8242-0.28125 0.46094-28.676 45.629-65.609 36.949-3.0117-0.6875-6.0273 1.1602-6.7305 4.1719-0.70703 3.0117 1.1641 6.0273 4.1719 6.7305 4.2344 0.99219 8.3438 1.4453 12.32 1.4453 38.207 0 64.195-41.48 65.387-43.426z"
    />
  
 </g>
</svg>
