<?xml version="1.0" encoding="UTF-8" ?>
<svg
  width="700pt"
  height="700pt"
  version="1.1"
  viewBox="0 0 700 550"
  xmlns="http://www.w3.org/2000/svg"
  xmlns:xlink="http://www.w3.org/1999/xlink"
>

 <g>
  <path
      d="m414.75 169.52c-10.445-5.3438-22.297-7.2969-33.906-5.582s-22.391 7.0117-30.844 15.148c-8.4727-8.1055-19.25-13.379-30.852-15.094-11.598-1.7148-23.445 0.21875-33.898 5.5273-20.648 10.965-38.852 39.668-21.934 84.352 15.75 41.648 73.148 96.133 86.684 96.133s70.934-54.484 86.684-96.133c16.918-44.684-1.2852-73.383-21.934-84.352zm0 76.184c-11.668 32.199-50.867 68.367-64.867 78.984-14-10.617-52.734-46.668-64.867-78.984-12.133-32.316-1.8672-48.648 11.082-55.535l0.003906 0.003907c4.3906-2.3047 9.2734-3.5078 14.23-3.5 12.137 0.26562 23.359 6.5117 29.984 16.684 2.1836 3.125 5.7539 4.9883 9.5664 4.9883s7.3867-1.8633 9.5664-4.9883c4.5195-7.1875 11.496-12.484 19.629-14.91 8.1328-2.4258 16.871-1.8125 24.59 1.7266 13.066 6.8828 22.75 24.965 11.199 55.531z"
    />
  <path
      d="m350 46.668c-49.508 0-96.988 19.664-131.99 54.672-35.008 35.008-54.676 82.488-54.676 131.99 0 133.47 166.25 280 186.67 280s186.67-146.53 186.67-280c0-32.766-8.625-64.957-25.012-93.332-16.383-28.375-39.945-51.941-68.324-68.324-28.375-16.383-60.566-25.008-93.332-25.008zm0 442.17c-26.133-16.801-163.33-140.82-163.33-255.5 0-58.352 31.129-112.27 81.664-141.45 50.535-29.176 112.8-29.176 163.34 0 50.535 29.176 81.664 83.098 81.664 141.45 0 114.68-137.2 238.7-163.33 255.5z"
    />
 
 </g>
</svg>
