<?xml version="1.0" encoding="UTF-8" ?>
<svg
  width="700pt"
  height="700pt"
  version="1.1"
  viewBox="0 0 700 550"
  xmlns="http://www.w3.org/2000/svg"
  xmlns:xlink="http://www.w3.org/1999/xlink"
>

 <g>
  <path
      d="m430.93 122.8c-10.223 10.227-10.223 26.855 0 37.078 5.1094 5.1133 11.824 7.668 18.539 7.668 6.7109 0 13.426-2.5586 18.539-7.668 10.223-10.223 10.223-26.852 0-37.078-10.23-10.234-26.867-10.211-37.078 0zm29.16 29.156c-5.8672 5.8555-15.395 5.8477-21.242 0-5.8516-5.8516-5.8516-15.383 0-21.242 2.9258-2.9258 6.7695-4.3906 10.621-4.3906 3.8438 0 7.6875 1.4648 10.621 4.3906 5.8516 5.8594 5.8516 15.387 0 21.242z"
    />
  <path
      d="m491.48 99.316c-5.8828-5.8906-14.355-8.0234-22.121-6.0156-4.0742-6.918-11.578-11.391-19.895-11.391-8.3242 0-15.828 4.4688-19.895 11.391-7.7812-2.0195-16.246 0.13281-22.121 6.0156-0.88672 0.88672-1.6641 1.8477-2.3789 2.8438-1.8672-2.6016-4.2383-4.832-7.043-6.4805 2.0195-7.7773-0.125-16.242-6.0117-22.125-5.8828-5.8789-14.328-8.0352-22.121-6.0117-4.0742-6.9219-11.578-11.391-19.895-11.391s-15.82 4.4688-19.895 11.391c-7.7891-2.0391-16.238 0.125-22.121 6.0117-5.8828 5.8828-8.0273 14.352-6.0117 22.125-2.8047 1.6484-5.1797 3.8789-7.043 6.4805-0.71484-0.99609-1.4883-1.957-2.3789-2.8438-5.8906-5.8906-14.359-8.0234-22.121-6.0156-4.0703-6.9219-11.57-11.391-19.895-11.391-8.3164 0-15.82 4.4688-19.895 11.391-7.7617-2.0078-16.242 0.125-22.121 6.0156-5.8906 5.8789-8.0352 14.352-6.0156 22.121-6.918 4.0742-11.391 11.578-11.391 19.895 0 8.3242 4.4688 15.828 11.391 19.895-1.8086 6.9688-0.24609 14.484 4.3398 20.207-6.1914 16.828-9.375 34.516-9.375 52.617l-0.003906 258.75h-26.25c-3.0938 0-5.6016 2.5039-5.6016 5.6016 0 3.0938 2.5039 5.6016 5.6016 5.6016h63.699c3.0938 0 5.6016-2.5039 5.6016-5.6016 0-3.0938-2.5039-5.6016-5.6016-5.6016h-26.25v-258.75c0-15.652 2.6562-30.941 7.6484-45.59 4.5352 1.8008 9.5625 2.1484 14.324 0.90234 4.0742 6.9219 11.578 11.391 19.895 11.391 8.3242 0 15.828-4.4688 19.895-11.391 7.7812 2.0273 16.238-0.13281 22.121-6.0156 5.8828-5.8789 8.0352-14.344 6.0156-22.121 2.8047-1.6484 5.1758-3.8789 7.0391-6.4766 0.71484 0.99219 1.4883 1.9531 2.3789 2.8398 5.8789 5.8828 14.355 8.0234 22.121 6.0156 4.0781 6.9219 11.582 11.395 19.898 11.395s15.82-4.4688 19.895-11.391c7.7539 2.0078 16.238-0.13281 22.121-6.0156 0.88672-0.88672 1.6602-1.8477 2.3789-2.8398 1.8633 2.5977 4.2383 4.8281 7.0391 6.4766-2.0195 7.7773 0.13281 16.242 6.0156 22.121 5.8789 5.8828 14.34 8.043 22.121 6.0156 4.0703 6.9219 11.57 11.391 19.895 11.391 8.3164 0 15.82-4.4688 19.895-11.391 4.75 1.2422 9.7656 0.89453 14.297-0.89844 4.9961 14.648 7.6797 29.918 7.6797 45.582v258.75h-26.25c-3.0938 0-5.6016 2.5039-5.6016 5.6016 0 3.0938 2.5039 5.6016 5.6016 5.6016h63.699c3.0938 0 5.6016-2.5039 5.6016-5.6016 0-3.0938-2.5039-5.6016-5.6016-5.6016h-26.25v-258.75c0-18.117-3.1758-35.793-9.3672-52.625 4.5781-5.7227 6.1367-13.23 4.3281-20.195 6.9219-4.0703 11.391-11.57 11.391-19.895 0-8.3164-4.4727-15.82-11.391-19.895 2.0195-7.7734-0.125-16.238-6.0156-22.125zm-201.58 53.504c-1.6914 0.44141-3.0781 1.6562-3.7461 3.2695-0.66797 1.6133-0.54688 3.4492 0.33203 4.9609 2.7188 4.6641 1.9531 10.578-1.8594 14.383-3.8125 3.8125-9.7188 4.582-14.383 1.8594-1.5078-0.875-3.3477-1-4.9609-0.33203-1.6133 0.66797-2.8281 2.0547-3.2695 3.7461-1.3711 5.2109-6.0977 8.8555-11.484 8.8555-5.3828 0-10.105-3.6406-11.484-8.8594-0.44922-1.6914-1.6562-3.0742-3.2695-3.7422-0.6875-0.28516-1.418-0.42578-2.1445-0.42578-0.98047 0-1.9531 0.25781-2.8164 0.76172-4.6602 2.7188-10.57 1.9531-14.383-1.8594-3.8125-3.8047-4.5703-9.7188-1.8555-14.379 0.87891-1.5078 1-3.3477 0.33203-4.9648-0.66797-1.6133-2.0547-2.8281-3.7461-3.2695-5.2188-1.3711-8.8594-6.0977-8.8594-11.484 0-5.3828 3.6406-10.105 8.8594-11.484 1.6953-0.44922 3.0781-1.6562 3.7461-3.2773 0.66797-1.6133 0.54688-3.4492-0.33203-4.9609-2.7188-4.6602-1.957-10.57 1.8555-14.379 3.8125-3.8047 9.7227-4.5664 14.379-1.8555 1.5156 0.87891 3.3594 1 4.9609 0.33203 1.6172-0.66797 2.8281-2.0508 3.2773-3.7461 1.3789-5.2188 6.1016-8.8594 11.484-8.8594 5.3867 0 10.113 3.6406 11.484 8.8594 0.44141 1.6914 1.6562 3.0781 3.2695 3.7461 1.6133 0.66797 3.4492 0.54688 4.9648-0.33203 4.6602-2.7227 10.559-1.957 14.379 1.8555 3.8125 3.8047 4.5781 9.7188 1.8594 14.383-0.87891 1.5078-1 3.3398-0.33203 4.9609 0.66797 1.6133 2.0508 2.8203 3.7422 3.2695 5.2188 1.3789 8.8594 6.1016 8.8594 11.484-0.003907 5.3867-3.6445 10.109-8.8594 11.484zm96.051-17.523c2.7188 4.6602 1.957 10.57-1.8555 14.379-3.8125 3.8125-9.7109 4.5781-14.379 1.8555-1.5156-0.875-3.3516-1-4.9609-0.33203-1.6172 0.66797-2.8281 2.0508-3.2773 3.7461-1.375 5.2109-6.0977 8.8555-11.48 8.8555s-10.105-3.6406-11.484-8.8594c-0.44922-1.6953-1.6562-3.0781-3.2773-3.7461-0.68359-0.28516-1.4102-0.42578-2.1367-0.42578-0.98047 0-1.9531 0.25781-2.8203 0.76172-4.6523 2.7188-10.57 1.957-14.379-1.8555-3.8125-3.8047-4.5703-9.7188-1.8555-14.379 0.87891-1.5078 1-3.3477 0.33203-4.9609-0.66797-1.6172-2.0508-2.8281-3.7461-3.2773-5.2188-1.3789-8.8594-6.1016-8.8594-11.484 0-5.3867 3.6406-10.113 8.8594-11.484 1.6914-0.44141 3.0781-1.6562 3.7461-3.2695 0.66797-1.6172 0.54688-3.4492-0.33203-4.9648-2.7188-4.6602-1.9531-10.57 1.8555-14.383 3.8164-3.8008 9.7305-4.5703 14.383-1.8555 1.5078 0.875 3.3398 1 4.9609 0.33203 1.6133-0.66797 2.8203-2.0508 3.2695-3.7422 1.3789-5.2109 6.1016-8.8555 11.484-8.8555s10.105 3.6406 11.484 8.8594c0.44922 1.6914 1.6562 3.0742 3.2695 3.7422 1.6172 0.66797 3.457 0.54297 4.9609-0.33203 4.6719-2.7227 10.566-1.9531 14.383 1.8555 3.8047 3.8125 4.5703 9.7227 1.8555 14.383-0.87891 1.5156-1 3.3477-0.33203 4.9648 0.66797 1.6133 2.0547 2.8281 3.7461 3.2695 5.2188 1.3711 8.8594 6.0977 8.8594 11.484 0 5.3828-3.6406 10.105-8.8594 11.484-1.6953 0.44922-3.0781 1.6562-3.7461 3.2773-0.67188 1.6094-0.55078 3.4492 0.33203 4.957zm111.73 6.0391c0 5.3867-3.6406 10.113-8.8594 11.484-1.6914 0.44141-3.0781 1.6562-3.7461 3.2695-0.66797 1.6172-0.54688 3.457 0.33203 4.9648 2.5938 4.4453 1.9883 10.012-1.3828 13.82-0.86328 0.45312-1.5391 1.0977-2.0469 1.875-3.7422 2.6289-8.75 2.9141-12.805 0.53906-1.5039-0.875-3.3477-1-4.9609-0.33203s-2.8203 2.0508-3.2695 3.7422c-1.3789 5.2188-6.1016 8.8594-11.484 8.8594-5.3867 0-10.113-3.6406-11.484-8.8555-0.44141-1.6914-1.6562-3.0781-3.2695-3.7461-0.6875-0.28516-1.418-0.42578-2.1445-0.42578-0.98047 0-1.9531 0.25781-2.8164 0.76172-4.6641 2.7188-10.57 1.9531-14.383-1.8594-3.8125-3.8047-4.5781-9.7188-1.8594-14.383 0.87891-1.5078 1-3.3477 0.33203-4.9609-0.66797-1.6133-2.0547-2.8281-3.7461-3.2695-5.2109-1.3711-8.8555-6.0977-8.8555-11.484 0-5.3828 3.6406-10.105 8.8594-11.484 1.6914-0.44922 3.0742-1.6562 3.7422-3.2695 0.66797-1.6172 0.54688-3.4492-0.33203-4.9609-2.7188-4.6641-1.9531-10.578 1.8594-14.383 3.8164-3.8047 9.7188-4.5664 14.379-1.8555 1.5156 0.87891 3.3516 1 4.9648 0.33203 1.6133-0.66797 2.8281-2.0547 3.2695-3.7461 1.3711-5.2188 6.0977-8.8594 11.484-8.8594 5.3828 0 10.105 3.6406 11.484 8.8594 0.44922 1.6953 1.6562 3.0781 3.2773 3.7461 1.6016 0.66797 3.4414 0.54688 4.9609-0.33203 4.6523-2.7188 10.57-1.957 14.379 1.8555 3.8125 3.8047 4.5703 9.7188 1.8555 14.379-0.87891 1.5078-1 3.3477-0.33203 4.9609 0.66797 1.6172 2.0508 2.8281 3.7461 3.2773 5.2109 1.3711 8.8516 6.0977 8.8516 11.48z"
    />
  <path
      d="m350 89.359c-14.453 0-26.219 11.762-26.219 26.219 0 14.453 11.766 26.215 26.219 26.215s26.219-11.762 26.219-26.219c0-14.453-11.766-26.215-26.219-26.215zm0 41.234c-8.2812 0-15.016-6.7383-15.016-15.016 0-8.2812 6.7344-15.02 15.016-15.02s15.016 6.7383 15.016 15.016c0 8.2812-6.7344 15.02-15.016 15.02z"
    />
  <path
      d="m232 122.8c-10.223 10.227-10.223 26.855 0 37.078 5.1133 5.1133 11.828 7.668 18.539 7.668 6.7148 0 13.43-2.5586 18.539-7.668 10.223-10.223 10.223-26.852 0-37.078-10.223-10.223-26.859-10.211-37.078 0zm29.16 29.156c-5.8477 5.8477-15.371 5.8555-21.242 0-5.8516-5.8516-5.8516-15.383 0-21.242 2.9297-2.9258 6.7773-4.3906 10.621-4.3906 3.8516 0 7.6953 1.4648 10.621 4.3906 5.8516 5.8594 5.8516 15.391 0 21.242z"
    />
  
 </g>
</svg>
