<?xml version="1.0" encoding="UTF-8" ?>
<svg
  width="700pt"
  height="700pt"
  version="1.1"
  viewBox="0 0 700 550"
  xmlns="http://www.w3.org/2000/svg"
  xmlns:xlink="http://www.w3.org/1999/xlink"
>

 <g>
  <path
      d="m350.14 30.652c-117.08 0-212 94.914-212 212 0 19.996 2.8281 39.316 8 57.656 5.332 23.098 13.969 48.953 27.969 75.609 53.629 102.12 147.24 142.56 176.03 153.71 28.789-11.148 122.39-51.586 176.03-153.71 14-26.66 22.637-52.512 27.969-75.609 5.1719-18.336 8-37.664 8-57.656 0-117.08-94.914-212-212-212zm-0.003906 324.16c-75.293 0-136.33-61.039-136.33-136.33s61.039-136.33 136.33-136.33 136.33 61.039 136.33 136.33-61.035 136.33-136.33 136.33z"
    />
  <path
      d="m337.86 253.02v35.926c0 5.3164-4.3125 9.6289-9.6289 9.6289h-16.824c-5.3164 0-9.6289-4.3125-9.6289-9.6289v-140.94c0-5.3164 4.3125-9.6289 9.6289-9.6289h46.898c40.367 0 60.551 17.02 60.551 51.055 0 16.086-5.7891 29.102-17.371 39.047-11.582 9.9414-27.055 14.914-46.418 14.914h-7.5742c-5.3203-0.003906-9.6328 4.3086-9.6328 9.6289zm0-77.305v30.676c0 5.3164 4.3125 9.6289 9.6289 9.6289h4.5547c19.215 0 28.824-8.418 28.824-25.25 0-16.457-9.6094-24.688-28.824-24.688h-4.5547c-5.3164 0.003906-9.6289 4.3125-9.6289 9.6328z"
    />
  
 </g>
</svg>
