<?xml version="1.0" encoding="UTF-8" ?>
<svg
  width="700pt"
  height="700pt"
  version="1.1"
  viewBox="0 0 700 550"
  xmlns="http://www.w3.org/2000/svg"
  xmlns:xlink="http://www.w3.org/1999/xlink"
>
 
 <g>
  <path
      d="m347.35 306.73c0.82813 0.44141 1.7383 0.66797 2.6484 0.66797s1.8203-0.22266 2.6484-0.66797c2.5312-1.3555 62.074-33.746 73.066-78.738 6.4688-26.5-8.125-45.949-25.457-53.461-15.098-6.5508-35.625-5.0352-50.258 11.629-14.637-16.664-35.168-18.18-50.262-11.633-17.332 7.5156-31.918 26.961-25.449 53.461 10.98 44.992 70.535 77.387 73.062 78.742zm-43.156-121.93c3.832-1.6641 8.3359-2.707 13.086-2.707 9.5742 0 20.113 4.2695 28.031 16.383 2.0742 3.1758 7.3086 3.1602 9.375 0 11.832-18.113 29.547-18.695 41.113-13.676 13.02 5.6445 23.953 20.367 19.027 40.527-8.5781 35.121-53.402 63.328-64.828 70.023-11.426-6.6953-56.258-34.902-64.828-70.023-4.9219-20.164 6.0078-34.883 19.023-40.527z"
    />
  <path
      d="m127.82 220.97c-0.10938 0.10156-0.20703 0.20312-0.30469 0.30859-0.42578 0.46484-0.79297 0.97266-1.043 1.543-0.027344 0.0625-0.035156 0.12891-0.058594 0.19141-0.22656 0.57812-0.34375 1.1953-0.36719 1.8281-0.003907 0.074218-0.042969 0.13672-0.042969 0.21094v273.35c0 0.15234 0.074219 0.27734 0.085938 0.42578 0.027343 0.375 0.11719 0.72266 0.21875 1.0898 0.10547 0.37109 0.21875 0.71875 0.39844 1.0547 0.066406 0.12891 0.070313 0.27344 0.15234 0.39844 0.1875 0.30078 0.42578 0.54687 0.65625 0.79687 0.070312 0.078126 0.12109 0.16406 0.19531 0.23438 0.46094 0.44922 0.98828 0.78516 1.5547 1.0469 0.13281 0.0625 0.26562 0.10547 0.40625 0.16016 0.62109 0.23047 1.2617 0.38672 1.9258 0.39062 0 0.003906 0.003906 0.003906 0.007812 0.003906h436.8c3.0938 0 5.6016-2.5039 5.6016-5.6016l-0.003906-273.35c0-0.074219-0.039062-0.13281-0.042969-0.20703-0.023437-0.63672-0.14062-1.25-0.37109-1.832-0.023438-0.0625-0.03125-0.125-0.058594-0.18359-0.25-0.57812-0.61719-1.0898-1.0508-1.5586-0.09375-0.10156-0.1875-0.19531-0.28906-0.28906-0.10938-0.10156-0.19531-0.22266-0.3125-0.31641l-64.129-50.805c-0.17969-0.14062-0.39844-0.18359-0.58984-0.30078v-49.527c0-3.0938-2.5078-5.6016-5.6016-5.6016h-63.758l-62.359-49.398c-15.254-12.098-36.543-12.074-51.773 0.050781l-61.957 49.301c-0.015625 0.015626-0.023437 0.035157-0.042969 0.050782l-67.672-0.003906c-3.0938 0-5.6016 2.5039-5.6016 5.6016v52.68l-60.277 47.961c-0.10938 0.085937-0.19141 0.20312-0.29688 0.29688zm211.63 140.76-202.25 126.56v-253.13zm223.36-126.57v253.13l-202.24-126.56zm-13.902 257.64h-397.8l198.9-124.47zm9.8047-268.29-51.547 32.258v-73.09zm-228.07-150.68c11.137-8.8555 26.699-8.8711 37.844-0.03125l51.273 40.621h-140.13zm165.32 51.789v138.15l-145.96 91.34-150.41-94.129v-135.36zm-307.57 61.391v66.965l-47.109-29.48z"
    />
  
 </g>
</svg>
