<?xml version="1.0" encoding="UTF-8" ?>
<svg
  width="700pt"
  height="700pt"
  version="1.1"
  viewBox="0 0 700 550"
  xmlns="http://www.w3.org/2000/svg"
  xmlns:xlink="http://www.w3.org/1999/xlink"
>
 
 <g>
  <path
      d="m193.2 33.602c-18.418 0-33.598 15.18-33.598 33.598v313.6c0 18.418 15.18 33.598 33.598 33.598h117.6v89.602h-28c-0.35156-0.015625-0.69922-0.015625-1.0508 0-2.9727 0.13672-5.7656 1.4531-7.7656 3.6523-2.0039 2.1992-3.0508 5.1016-2.9102 8.0742 0.13672 2.9688 1.4531 5.7617 3.6523 7.7656 2.1992 2 5.1016 3.0469 8.0742 2.9062h134.4c3 0.042968 5.8867-1.1172 8.0234-3.2227 2.1367-2.1055 3.3359-4.9766 3.3359-7.9766 0-2.9961-1.1992-5.8711-3.3359-7.9766-2.1367-2.1055-5.0234-3.2656-8.0234-3.2227h-28v-89.602h117.6c18.418 0 33.598-15.18 33.598-33.598v-313.6c0-18.418-15.18-33.598-33.598-33.598zm0 22.398h313.6c6.3984 0 11.199 4.8008 11.199 11.199v313.6c0 6.3984-4.8008 11.199-11.199 11.199h-313.6c-6.3984 0-11.199-4.8008-11.199-11.199v-313.6c0-6.3984 4.8008-11.199 11.199-11.199zm94.676 50.398c-11.637 0-20.902 6.6758-25.199 17.328l-0.17578-0.17578-0.52344 1.0508-32.551 66.5c-0.19531 0.33984-0.37109 0.69141-0.52734 1.0469-8.1641 8.2539-13.297 19.695-13.297 32.203v66.848c0 6.1875 5.0117 11.199 11.199 11.199h11.199v28c0 6.1875 5.0156 11.199 11.199 11.203h44.801c6.1836-0.003906 11.199-5.0156 11.199-11.203v-28h89.602v28c0 6.1875 5.0156 11.199 11.199 11.203h44.801c6.1836-0.003906 11.199-5.0156 11.199-11.203v-28h11.199c6.1875 0 11.199-5.0117 11.199-11.199v-66.848c0-12.598-5.207-24.109-13.473-32.375-0.10547-0.29687-0.22266-0.58984-0.35156-0.875l-32.551-66.5-0.52344-1.0508-0.17578 0.17578c-4.2969-10.652-13.562-17.328-25.199-17.328zm0 22.402h124.25c0.60156 0 4.6445 2.7891 4.8984 3.5 0.10156 0.35547 0.21875 0.70703 0.35156 1.0508l22.398 45.848h-179.55l22.398-45.848c0.13281-0.34375 0.25-0.69531 0.35156-1.0508 0.25391-0.71094 4.2969-3.5 4.8984-3.5zm-28.523 72.801h181.3c11.699 0 21.352 9.6992 21.352 22.75v55.648h-224v-55.648c0-13.051 9.6523-22.75 21.352-22.75zm-4.5508 22.398v33.602h29.051c8.6836 0 15.75-7.4961 15.75-16.801 0-9.3086-7.0664-16.801-15.75-16.801zm161.35 0c-8.6836 0-15.75 7.4922-15.75 16.801 0 9.3047 7.0664 16.801 15.75 16.801h29.051v-33.602zm-155.75 78.398h22.402v16.801h-22.402zm156.8 0h22.402v16.801h-22.402zm-84 112h33.602v89.602h-33.602z"
    />
  
 </g>
</svg>
