<?xml version="1.0" encoding="UTF-8" ?>
<svg
  width="700pt"
  height="700pt"
  version="1.1"
  viewBox="0 0 700 550"
  xmlns="http://www.w3.org/2000/svg"
  xmlns:xlink="http://www.w3.org/1999/xlink"
>

 <g>
  <path
      d="m354.33 116.33c-90.246 0-163.66 73.418-163.66 163.67s73.422 163.67 163.66 163.67c90.25 0 163.67-73.422 163.67-163.67 0-90.25-73.418-163.67-163.67-163.67zm0 316.14c-84.07 0-152.46-68.398-152.46-152.47s68.395-152.47 152.46-152.47 152.47 68.398 152.47 152.47-68.398 152.47-152.47 152.47zm75.828-264.44h-151.66c-3.0938 0-5.6016 2.5078-5.6016 5.6016v212.74c0 3.0938 2.5078 5.6016 5.6016 5.6016h151.66c3.0938 0 5.6016-2.5078 5.6016-5.6016v-212.74c0-3.0898-2.5078-5.5977-5.6016-5.5977zm-5.5977 212.74h-140.46v-95.168h61.02l-20.004 38.613c-1.4219 2.7461-0.34766 6.125 2.3984 7.5508 2.75 1.4258 6.125 0.34766 7.5508-2.3984l18.414-35.551 18.535 49.98c0.83594 2.2578 2.9766 3.6562 5.25 3.6562 0.64844 0 1.3047-0.11328 1.9453-0.35156 2.9023-1.0742 4.3789-4.2969 3.3047-7.1953l-20.141-54.305h62.18zm-100.63-130.66c-0.09375-0.73438-0.39453-2.9688 3.7422-6.1523 2.9531-2.2734 5.4453-3.4141 7.4375-3.4141 0.67969 0 1.3047 0.13281 1.8672 0.40234 5.6797 2.6914 9.3281 16.902 10.797 29.457-11.086-5.7383-23.016-14.059-23.844-20.293zm37.789 20.008c2.957-11.496 8.0312-23.68 13.977-26.098 0.34375-0.14063 0.98047-0.39844 1.9453-0.39844 1.3789 0 3.4297 0.52734 6.2656 2.6797 3.2031 2.4297 2.9844 3.9727 2.9102 4.4805-0.82422 5.7422-13.297 13.684-25.098 19.336zm62.84 4.2773h-46.98c9.6953-5.7891 19.098-13.473 20.324-22.027 0.5625-3.9141-0.23828-9.6914-7.2266-14.996-8.1836-6.2031-14.957-5.4609-19.199-3.7305-7.0039 2.8477-12.062 10.52-15.617 18.766-2.5781-9.3086-6.8828-18.168-14.078-21.582-4.3516-2.0625-11.512-3-20.941 4.25-7.6562 5.8906-8.582 12.227-8.0156 16.508 1.1953 8.9609 10.176 16.898 19.344 22.812h-48.066v-95.168h140.46zm-256.86-142.22c-3.0938 0-5.6016 2.5078-5.6016 5.6016v58.184h-15.254l0.003906-58.188c0-3.0938-2.5078-5.6016-5.6016-5.6016s-5.6016 2.5078-5.6016 5.6016v58.184l-15.25 0.003907v-58.188c0-3.0938-2.5078-5.6016-5.6016-5.6016s-5.6016 2.5078-5.6016 5.6016l0.003907 72.332c0 15.359 11.586 27.934 26.453 29.781v182.34c0 3.0938 2.5078 5.6016 5.6016 5.6016s5.6016-2.5078 5.6016-5.6016l-0.003907-182.33c14.867-1.8516 26.453-14.426 26.453-29.781v-72.336c0-3.0898-2.5078-5.5977-5.6016-5.5977zm-5.5977 77.93c0 10.453-8.5039 18.957-18.957 18.957h-3.7891c-10.457 0-18.961-8.5039-18.961-18.957v-2.9492h41.703zm423.09-77.93c-22.699 0-41.164 18.465-41.164 41.164v85.906c0 20.797 15.508 38.043 35.562 40.781v122.2c0 3.0938 2.5078 5.6016 5.6016 5.6016s5.6016-2.5078 5.6016-5.6016v-284.45c0-3.0898-2.5078-5.5977-5.6016-5.5977zm-5.5977 156.51c-13.855-2.6289-24.363-14.828-24.363-29.438v-85.91c0-14.609 10.508-26.809 24.363-29.438z"
    />
  
 </g>
</svg>
