<?xml version="1.0" encoding="UTF-8" ?>
<svg
  width="700pt"
  height="700pt"
  version="1.1"
  viewBox="0 0 700 550"
  xmlns="http://www.w3.org/2000/svg"
  xmlns:xlink="http://www.w3.org/1999/xlink"
>

 <g>
  <path
      d="m338.55 421.57c3.2812 2.8438 7.3594 4.2617 11.445 4.2617s8.1562-1.418 11.445-4.2617c14.953-12.926 146.05-128.62 146.05-211.57 0-86.844-70.656-157.5-157.5-157.5s-157.5 70.656-157.5 157.5c0 82.941 131.11 198.64 146.05 211.57zm-50.426-270.44c9.9141-9.9219 23.102-15.383 37.125-15.383 8.7773 0 17.219 2.1445 24.746 6.168 7.5234-4.0234 15.969-6.168 24.746-6.168 14.027 0 27.211 5.4609 37.125 15.383 20.477 20.465 20.477 53.777 0 74.234l-49.5 49.5c-3.418 3.4297-7.8906 5.1367-12.371 5.1367s-8.9609-1.707-12.371-5.1289l-49.5-49.5c-20.477-20.465-20.477-53.773 0-74.242z"
    />
  <path
      d="m387.12 200.63c6.8164-6.8242 6.8164-17.922 0-24.746-6.6133-6.6133-18.148-6.6055-24.746 0-6.5781 6.5703-18.199 6.5703-24.762 0-3.2969-3.2969-7.6914-5.1172-12.371-5.1172-4.6797 0-9.0742 1.8203-12.383 5.1289-6.8164 6.8242-6.8164 17.922 0 24.746l37.137 37.105z"
    />
  <path
      d="m350 437.5c-26.391 0-45.902 20.938-48.039 23.328-5.9492 6.6406-5.9492 16.703 0 23.344 2.1367 2.3906 21.648 23.328 48.039 23.328s45.895-20.938 48.039-23.328c5.9492-6.6406 5.9492-16.703 0-23.344-2.1445-2.3906-21.648-23.328-48.039-23.328z"
    />

 </g>
</svg>
