<?xml version="1.0" encoding="UTF-8" ?>
<svg
  width="700pt"
  height="700pt"
  version="1.1"
  viewBox="0 0 700 550"
  xmlns="http://www.w3.org/2000/svg"
  xmlns:xlink="http://www.w3.org/1999/xlink"
>

 <g>
  <path
      d="m558.69 368.2-8.75-50.574c-2.1484-12.922-8.8008-24.668-18.777-33.152-9.9766-8.4883-22.637-13.172-35.734-13.223h-98.352-3.3242v-227.5h-280v280h122.5v192.5h35v-192.5h70l-7.4375 44.449c-7.7891 1.5781-14.793 5.8047-19.816 11.961-5.0273 6.1602-7.7617 13.867-7.7461 21.816v79.273h35v26.25c0 2.3203 0.92188 4.5469 2.5625 6.1875s3.8672 2.5625 6.1875 2.5625h17.5c2.3203 0 4.5469-0.92188 6.1875-2.5625s2.5625-3.8672 2.5625-6.1875v-26.25h140v26.25c0 2.3203 0.92188 4.5469 2.5625 6.1875s3.8672 2.5625 6.1875 2.5625h17.5c2.3203 0 4.5469-0.92188 6.1875-2.5625s2.5625-3.8672 2.5625-6.1875v-26.25h35v-79.273c0.015625-7.9492-2.7188-15.656-7.7461-21.816-5.0234-6.1562-12.027-10.383-19.816-11.961zm-296.19-166.95h-43.75v87.5h-35v-210h78.75c21.883 0 42.102 11.676 53.043 30.625 10.941 18.949 10.941 42.301 0 61.25-10.941 18.949-31.16 30.625-53.043 30.625zm96.25 245c-4.6406 0-9.0938-1.8438-12.375-5.125s-5.125-7.7344-5.125-12.375 1.8438-9.0938 5.125-12.375 7.7344-5.125 12.375-5.125 9.0938 1.8438 12.375 5.125 5.125 7.7344 5.125 12.375-1.8438 9.0938-5.125 12.375-7.7344 5.125-12.375 5.125zm105 8.75h-35c-4.832 0-8.75-3.918-8.75-8.75s3.918-8.75 8.75-8.75h35c4.832 0 8.75 3.918 8.75 8.75s-3.918 8.75-8.75 8.75zm17.5-35h-70c-4.832 0-8.75-3.918-8.75-8.75s3.918-8.75 8.75-8.75h70c4.832 0 8.75 3.918 8.75 8.75s-3.918 8.75-8.75 8.75zm52.5 26.25c-4.6406 0-9.0938-1.8438-12.375-5.125s-5.125-7.7344-5.125-12.375 1.8438-9.0938 5.125-12.375 7.7344-5.125 12.375-5.125 9.0938 1.8438 12.375 5.125 5.125 7.7344 5.125 12.375-1.8438 9.0938-5.125 12.375-7.7344 5.125-12.375 5.125z"
    />
  <path
      d="m262.5 113.75h-43.75v52.5h43.75c9.3789 0 18.043-5.0039 22.734-13.125 4.6875-8.1211 4.6875-18.129 0-26.25-4.6914-8.1211-13.355-13.125-22.734-13.125z"
    />
 
 </g>
</svg>
