<?xml version="1.0" encoding="UTF-8" ?>
<svg
  width="700pt"
  height="700pt"
  version="1.1"
  viewBox="0 0 700 550"
  xmlns="http://www.w3.org/2000/svg"
  xmlns:xlink="http://www.w3.org/1999/xlink"
>

 <g>
  <path
      d="m350 39.434c-132.65 0-240.57 107.92-240.57 240.57s107.92 240.57 240.57 240.57 240.57-107.92 240.57-240.57-107.92-240.57-240.57-240.57zm0 447.53c-114.1 0-206.96-92.867-206.96-206.96 0-114.1 92.863-206.96 206.96-206.96s206.96 92.863 206.96 206.96-92.863 206.96-206.96 206.96z"
    />
  <path
      d="m382.55 140.12h-89.484c-9.2148 0-16.801 7.582-16.801 16.801v268.45c0 9.2148 7.582 16.801 16.801 16.801 9.2148 0 16.801-7.582 16.801-16.801v-117.37h72.684c46.316 0 83.883-37.684 83.883-83.883 0-46.199-37.684-84-83.883-84zm0 134.28h-72.684v-100.68h72.684c27.766 0 50.398 22.633 50.398 50.398 0 27.77-22.75 50.285-50.398 50.285z"
    />
 
 </g>
</svg>
