<?xml version="1.0" encoding="UTF-8" ?>
<svg
  width="700pt"
  height="700pt"
  version="1.1"
  viewBox="0 0 700 550"
  xmlns="http://www.w3.org/2000/svg"
  xmlns:xlink="http://www.w3.org/1999/xlink"
>

 <g>
  <path
      d="m567.96 370.74-8.75-54.512c-2.4648-15.098-10.25-28.812-21.949-38.668-11.699-9.8555-26.539-15.195-41.836-15.059h-92.926v-218.75c0-2.3203-0.92188-4.5469-2.5625-6.1875s-3.8672-2.5625-6.1875-2.5625h-280c-4.832 0-8.75 3.918-8.75 8.75v280c0 2.3203 0.92188 4.5469 2.5625 6.1875s3.8672 2.5625 6.1875 2.5625h113.75v183.75c0 2.3203 0.92188 4.5469 2.5625 6.1875s3.8672 2.5625 6.1875 2.5625h35c2.3203 0 4.5469-0.92188 6.1875-2.5625s2.5625-3.8672 2.5625-6.1875v-183.75h50.926l-6.3867 38.238c-7.9805 3.2109-14.82 8.7305-19.637 15.855-4.8164 7.1289-7.3945 15.531-7.4023 24.133v70.523c0 2.3203 0.92188 4.5469 2.5625 6.1875s3.8672 2.5625 6.1875 2.5625h26.25v17.5c0 4.6406 1.8438 9.0938 5.125 12.375s7.7344 5.125 12.375 5.125h17.5c4.6406 0 9.0938-1.8438 12.375-5.125s5.125-7.7344 5.125-12.375v-17.5h122.5v17.5c0 4.6406 1.8438 9.0938 5.125 12.375s7.7344 5.125 12.375 5.125h17.5c4.6406 0 9.0938-1.8438 12.375-5.125s5.125-7.7344 5.125-12.375v-17.5h26.25c2.3203 0 4.5469-0.92188 6.1875-2.5625s2.5625-3.8672 2.5625-6.1875v-70.523c-0.007812-8.6016-2.5859-17.004-7.4023-24.133-4.8164-7.125-11.656-12.645-19.637-15.855zm-26.25-51.625 7.9648 48.387h-206.85l8.0508-48.387c0.89844-5.2461 2.6758-10.305 5.25-14.965 7.7266-14.066 22.129-23.184 38.148-24.148h101.15c11.094-0.042969 21.84 3.875 30.309 11.043 8.4648 7.168 14.102 17.121 15.891 28.07zm-419.21-266.61h262.5v211.31l-1.4883 0.4375c-1.3984 0-2.7109 0.69922-4.0234 1.0508-2.0234 0.50781-4.0117 1.1523-5.9492 1.9258l-3.8516 1.6641c-1.8359 0.875-3.5859 1.75-5.3359 2.8008l-3.5 2.1875c-1.6641 1.1367-3.2383 2.3633-4.8125 3.6758-1.5742 1.3125-2.1016 1.6641-3.0625 2.625v-0.003907c-1.543 1.4062-2.9766 2.9297-4.2891 4.5508-0.875 0.96094-1.75 1.8359-2.5391 2.8867-1.3828 1.8555-2.668 3.7852-3.8477 5.7734-0.52344 0.875-1.2266 1.75-1.75 2.7109v0.003906c-1.6289 3.0117-3.0352 6.1406-4.1992 9.3594-1.0977 3.1094-1.9453 6.2969-2.5391 9.5391h-211.31zm140 455h-17.5v-175h17.5zm105 0h-17.5v-17.5h17.5zm175 0h-17.5v-17.5h17.5zm35-35h-262.5v-61.773c0-6.8242 2.7109-13.367 7.5352-18.191 4.8242-4.8242 11.367-7.5352 18.191-7.5352h211.05c6.8242 0 13.367 2.7109 18.191 7.5352 4.8242 4.8242 7.5352 11.367 7.5352 18.191z"
    />
  <path
      d="m358.75 402.5c-6.9609 0-13.641 2.7656-18.562 7.6875s-7.6875 11.602-7.6875 18.562 2.7656 13.641 7.6875 18.562 11.602 7.6875 18.562 7.6875 13.641-2.7656 18.562-7.6875 7.6875-11.602 7.6875-18.562-2.7656-13.641-7.6875-18.562-11.602-7.6875-18.562-7.6875zm0 35c-3.5391 0-6.7305-2.1328-8.082-5.4023-1.3555-3.2695-0.60938-7.0312 1.8945-9.5352s6.2656-3.25 9.5352-1.8945c3.2695 1.3516 5.4023 4.543 5.4023 8.082 0 2.3203-0.92188 4.5469-2.5625 6.1875s-3.8672 2.5625-6.1875 2.5625z"
    />
  <path
      d="m533.75 402.5c-6.9609 0-13.641 2.7656-18.562 7.6875s-7.6875 11.602-7.6875 18.562 2.7656 13.641 7.6875 18.562 11.602 7.6875 18.562 7.6875 13.641-2.7656 18.562-7.6875 7.6875-11.602 7.6875-18.562-2.7656-13.641-7.6875-18.562-11.602-7.6875-18.562-7.6875zm0 35c-3.5391 0-6.7305-2.1328-8.082-5.4023-1.3555-3.2695-0.60938-7.0312 1.8945-9.5352s6.2656-3.25 9.5352-1.8945c3.2695 1.3516 5.4023 4.543 5.4023 8.082 0 2.3203-0.92188 4.5469-2.5625 6.1875s-3.8672 2.5625-6.1875 2.5625z"
    />
  <path
      d="m481.25 402.5h-70c-4.832 0-8.75 3.918-8.75 8.75s3.918 8.75 8.75 8.75h70c4.832 0 8.75-3.918 8.75-8.75s-3.918-8.75-8.75-8.75z"
    />
  <path
      d="m463.75 437.5h-35c-4.832 0-8.75 3.918-8.75 8.75s3.918 8.75 8.75 8.75h35c4.832 0 8.75-3.918 8.75-8.75s-3.918-8.75-8.75-8.75z"
    />
  <path
      d="m297.5 140c0-9.2812-3.6875-18.184-10.25-24.75-6.5664-6.5625-15.469-10.25-24.75-10.25h-43.75c-4.832 0-8.75 3.918-8.75 8.75v52.5c0 2.3203 0.92188 4.5469 2.5625 6.1875s3.8672 2.5625 6.1875 2.5625h43.75c9.2812 0 18.184-3.6875 24.75-10.25 6.5625-6.5664 10.25-15.469 10.25-24.75zm-70-17.5h35c6.2539 0 12.031 3.3359 15.156 8.75s3.125 12.086 0 17.5-8.9023 8.75-15.156 8.75h-35z"
    />
  <path
      d="m332.5 140c0-18.566-7.375-36.371-20.504-49.496-13.125-13.129-30.93-20.504-49.496-20.504h-78.75c-4.832 0-8.75 3.918-8.75 8.75v210c0 2.3203 0.92188 4.5469 2.5625 6.1875s3.8672 2.5625 6.1875 2.5625h35c2.3203 0 4.5469-0.92188 6.1875-2.5625s2.5625-3.8672 2.5625-6.1875v-78.75h35c18.566 0 36.371-7.375 49.496-20.504 13.129-13.125 20.504-30.93 20.504-49.496zm-113.75 52.5c-4.832 0-8.75 3.918-8.75 8.75v78.75h-17.5v-192.5h70c18.758 0 36.09 10.008 45.465 26.25 9.3789 16.242 9.3789 36.258 0 52.5-9.375 16.242-26.707 26.25-45.465 26.25z"
    />
  
 </g>
</svg>
