<?xml version="1.0" encoding="UTF-8" ?>
<svg
  width="700pt"
  height="700pt"
  version="1.1"
  viewBox="0 0 700 550"
  xmlns="http://www.w3.org/2000/svg"
  xmlns:xlink="http://www.w3.org/1999/xlink"
>

 <g>
  <path
      d="m245 304.25c-17.465 0-31.676 14.211-31.676 31.676s14.211 31.676 31.676 31.676c17.469 0 31.68-14.211 31.68-31.676s-14.211-31.676-31.68-31.676zm0 52.148c-11.289 0-20.477-9.1836-20.477-20.477 0-11.289 9.1836-20.477 20.477-20.477 11.289 0 20.477 9.1836 20.477 20.477 0.003906 11.293-9.1836 20.477-20.477 20.477z"
    />
  <path
      d="m456.4 304.25c-17.469 0-31.68 14.211-31.68 31.676s14.211 31.676 31.68 31.676c17.465 0 31.676-14.211 31.676-31.676s-14.211-31.676-31.676-31.676zm0 52.148c-11.289 0-20.477-9.1836-20.477-20.477 0-11.289 9.1875-20.477 20.477-20.477 11.289 0 20.477 9.1836 20.477 20.477s-9.1875 20.477-20.477 20.477z"
    />
  <path
      d="m131.6 444.39h37.238v30.039c0 16.305 13.266 29.57 29.57 29.57 16.305 0 29.57-13.266 29.57-29.57v-30.039h245.44v30.039c0 16.305 13.266 29.57 29.57 29.57 16.305 0 29.57-13.266 29.57-29.57v-30.039h35.836c3.0938 0 5.6016-2.5078 5.6016-5.6016v-41.828c0-3.0938-2.5078-5.6016-5.6016-5.6016h-15.836v-65.582c0-29.035-23.238-52.691-52.086-53.473l-16.434-96.789c-3.8555-21.254-20.969-36.684-40.695-36.684h-185.29c-19.727 0-36.84 15.426-40.707 36.746l-16.422 96.727c-28.848 0.78125-52.086 24.441-52.086 53.473v65.586h-17.238c-3.0938 0-5.6016 2.5078-5.6016 5.6016v41.828c0 3.0898 2.5078 5.5977 5.6016 5.5977zm85.176 30.039c0 10.129-8.2422 18.371-18.367 18.371-10.129 0-18.371-8.2422-18.371-18.371v-30.039h36.738zm304.58 0c0 10.129-8.2383 18.371-18.367 18.371-10.129 0-18.371-8.2422-18.371-18.371v-30.039h36.738zm-292.98-296.91c2.8867-15.926 15.371-27.484 29.676-27.484h185.29c14.305 0 26.789 11.559 29.664 27.422l16.09 94.777h-276.8zm-68.34 148.26c0-23.352 18.996-42.348 42.344-42.348h296.64c23.348 0 42.344 18.996 42.344 42.348v65.586h-381.32zm-22.84 76.785h425.6v30.629h-425.6z"
    />
  <path
      d="m348.64 123.5c0.66797 0.26953 1.375 0.40234 2.082 0.40234s1.4141-0.13281 2.082-0.40234c1.2461-0.49609 30.57-12.484 36.059-36.105 3.4609-14.895-4.9531-25.809-14.23-29.652-7.1602-2.9531-16.586-2.3984-23.906 4.3516-7.3242-6.75-16.742-7.3125-23.91-4.3477-9.2812 3.8398-17.691 14.758-14.23 29.648 5.4844 23.621 34.805 35.609 36.055 36.105zm-17.543-55.406c1.5-0.62109 2.9922-0.92578 4.4453-0.92578 4.0078 0 7.7227 2.3125 10.422 6.6523 2.0469 3.2852 7.4648 3.2852 9.5117 0 3.6836-5.918 9.2422-8.0547 14.871-5.7266 5.2227 2.1641 9.6016 8.1836 7.6055 16.766-3.4492 14.848-21.172 24.426-27.262 27.32-8.082-3.7695-24.031-13.715-27.195-27.324-2-8.5781 2.3789-14.598 7.6016-16.762z"
    />
  <path
      d="m422.53 124.66c0.34766 0.046875 3.1875 0.40625 7.3359 0.40625 9.0195 0 24.25-1.6914 33.645-11.949 7.5664-8.2578 8.3125-19.816 1.8125-28.102-3.9766-5.0703-10.926-8.5859-18.863-7.0508-2.8281-7.5898-9.4102-11.707-15.801-12.484-10.477-1.2695-19.957 5.3516-23.102 16.105-5.7109 19.492 10.648 40.164 11.344 41.031 0.90234 1.1211 2.1992 1.8516 3.6289 2.043zm-4.2266-39.934c1.8516-6.3125 6.8594-8.625 11.004-8.1328 4.3906 0.53125 7.1445 3.9141 7.3672 9.043 0.082031 1.9336 1.1602 3.6875 2.8438 4.6367 1.6914 0.95312 3.7461 0.96484 5.4414 0.03125 4.5-2.4648 8.8203-1.8633 11.551 1.6172 2.5742 3.2852 3.1875 8.7734-1.2578 13.625-7.8516 8.5664-23.16 8.5352-28.953 8.1992-3.2812-4.7812-11.234-17.953-7.9961-29.02z"
    />
  <path
      d="m270.13 125.18c4.1562 0 6.9961-0.35938 7.3438-0.40625 1.4258-0.1875 2.7266-0.92188 3.6289-2.0469 0.69531-0.87109 17.055-21.539 11.344-41.031-3.1445-10.75-12.648-17.359-23.102-16.105-6.3945 0.77734-12.977 4.8984-15.805 12.488-7.9375-1.5195-14.883 1.9844-18.863 7.0508-6.5 8.2852-5.7539 19.844 1.8125 28.102 9.3984 10.258 24.621 11.949 33.641 11.949zm-26.637-33.137c1.6172-2.0625 3.7969-3.1172 6.2383-3.1172 1.6758 0 3.4766 0.49609 5.3086 1.5 1.6992 0.92969 3.7539 0.91406 5.4414-0.03125 1.6836-0.94922 2.7617-2.7031 2.8438-4.6367 0.22266-5.1289 2.9766-8.5117 7.3672-9.0469 4.1523-0.47266 9.1562 1.8164 11.004 8.1328 3.2656 11.16-4.6875 24.25-7.9844 29.027-5.7969 0.32812-21.113 0.375-28.965-8.1992-4.4375-4.8555-3.8281-10.344-1.2539-13.629z"
    />
 </g>
</svg>
