<?xml version="1.0" encoding="UTF-8"?>
<svg width="700pt" height="700pt" version="1.1" viewBox="0 0 700 700" xmlns="http://www.w3.org/2000/svg">
 <path d="m576.33 233.33-210-186.67c-9.332-7-21-7-30.332 0l-210 186.67c-9.332 9.332-11.668 23.332-2.332 32.668 4.668 4.668 11.668 7 16.332 7h23.332v210c0 14 9.332 23.332 23.332 23.332h326.67c14 0 23.332-9.332 23.332-23.332v-210h23.332c14 0 23.332-9.332 23.332-23.332 0.003906-7-2.3281-11.668-6.9961-16.336zm-156.33 226.34h-140v-70c0-39.668 30.332-70 70-70s70 30.332 70 70z"/>
</svg>
