<?xml version="1.0" encoding="UTF-8" ?>
<svg
  width="700pt"
  height="700pt"
  version="1.1"
  viewBox="0 0 700 550"
  xmlns="http://www.w3.org/2000/svg"
  xmlns:xlink="http://www.w3.org/1999/xlink"
>
 
 <g>
  <path
      d="m161 229.6c0 127.33 186.09 289.8 189 289.8 0.57812 0 189-156.54 189-289.8 0-50.129-19.914-98.199-55.355-133.64-35.445-35.445-83.52-55.355-133.64-55.355s-98.199 19.91-133.64 55.355c-35.441 35.445-55.355 83.516-55.355 133.64zm193.2-9.1992c0-37.305 26.125-54.297 50.398-54.297 24.273 0 50.398 16.992 50.398 54.297 0 54.676-90.633 120.08-105 130.1-14.391-10.039-105-75.434-105-130.1 0-36.207 25.195-54.305 50.395-54.305 25.203 0 50.406 18.105 50.406 54.305h0.003906c0 2.3203 1.8789 4.1992 4.1992 4.1992s4.1992-1.8789 4.1992-4.1992z"
    />
  
 </g>
</svg>
