<?xml version="1.0" encoding="UTF-8" ?>
<svg
  width="700pt"
  height="700pt"
  version="1.1"
  viewBox="0 0 700 550"
  xmlns="http://www.w3.org/2000/svg"
  xmlns:xlink="http://www.w3.org/1999/xlink"
>

 <g>
  <path
      d="m511.4 380.04 5.4961-6.6016c1.8594-2.2305 1.6992-5.5117-0.36328-7.5586l-34.84-34.52 11.816-14.191c1.9297-2.3125 1.6797-5.7383-0.5625-7.75l-190.5-171.08c-1.75-23.957-12.98-46.258-31.391-61.621-18.16-15.164-41.113-22.316-64.664-20.195-23.516 2.1328-44.793 13.305-59.906 31.457-31.207 37.477-26.117 93.41 11.352 124.69 15.945 13.312 36.035 20.469 56.625 20.469 3.207 0 6.4258-0.23437 9.6445-0.58594l208.39 149.77c0.98828 0.70703 2.1289 1.0508 3.2656 1.0508 1.6094 0 3.2031-0.69531 4.3086-2.0195l11.805-14.176 40.172 28.09c0.97656 0.68359 2.0938 1.0117 3.207 1.0117 1.6094 0 3.2031-0.69531 4.3086-2.0195l4.6797-5.6172 49.844 41.605 1.4531 1.2969c8.7734 7.3281 9.9688 20.426 2.6602 29.207-3.5352 4.2422-8.5117 6.8594-14.016 7.3594-5.5 0.47656-10.887-1.1797-15.141-4.7305l-11.543-9.6367c-6.5469-5.4648-14.809-8.0352-23.316-7.2852-8.4883 0.76562-16.168 4.7969-21.625 11.348-11.262 13.52-9.4219 33.691 4.0938 44.969 1.0469 0.875 2.3203 1.3008 3.5859 1.3008 1.6016 0 3.1953-0.68359 4.3047-2.0117 1.9805-2.375 1.6602-5.9062-0.71484-7.8867-8.7812-7.3242-9.9727-20.426-2.6602-29.207 3.5391-4.2422 8.5195-6.8594 14.023-7.3555 5.4961-0.53516 10.879 1.1797 15.281 4.8516l11.395 9.5117c6.5508 5.4727 14.797 8.0898 23.328 7.2852 8.4805-0.76562 16.156-4.7969 21.609-11.348 11.254-13.52 9.418-33.691-3.9375-44.84zm-356.31-284.89c13.199-15.848 31.777-25.605 52.312-27.469 20.578-1.8594 40.609 4.4023 56.477 17.641 4.7305 3.9492 8.8633 8.4648 12.473 13.344l-95.996 115.29c-5.4414-2.6719-10.617-5.9258-15.348-9.875-32.727-27.32-37.18-76.184-9.918-108.93zm36.215 123.16 91.297-109.64c5.3711 10.227 8.5234 21.617 8.9375 33.441l-65.785 79c-11.691 1.707-23.445 0.64844-34.449-2.7969zm243.49 151.88-199.32-143.25 63.688-76.48 182.29 163.71zm59.445 12.953-35.18-24.598 15.438-18.539 30.5 30.223z"
    />
  <path
      d="m238 267.57c-3.0938 0-5.6016 2.5039-5.6016 5.6016v16.023h-15.957c-3.0938 0-5.6016 2.5039-5.6016 5.6016 0 3.0938 2.5078 5.6016 5.6016 5.6016l15.957-0.003906v16.027c0 3.0938 2.5078 5.6016 5.6016 5.6016s5.6016-2.5039 5.6016-5.6016v-16.027h15.957c3.0938 0 5.6016-2.5039 5.6016-5.6016 0-3.0938-2.5078-5.6016-5.6016-5.6016l-15.957 0.003907v-16.023c0-3.0977-2.5078-5.6016-5.6016-5.6016z"
    />
  <path
      d="m495.98 248.66c3.0938 0 5.6016-2.5039 5.6016-5.6016v-16.027h15.961c3.0938 0 5.6016-2.5039 5.6016-5.6016 0-3.0938-2.5078-5.6016-5.6016-5.6016h-15.961v-16.023c0-3.0938-2.5078-5.6016-5.6016-5.6016s-5.6016 2.5039-5.6016 5.6016v16.023h-15.957c-3.0938 0-5.6016 2.5039-5.6016 5.6016 0 3.0938 2.5078 5.6016 5.6016 5.6016h15.957v16.027c0 3.0938 2.5078 5.6016 5.6016 5.6016z"
    />
  <path
      d="m422.4 199.5c18.078 0 32.789-14.723 32.789-32.824 0-18.098-14.707-32.816-32.789-32.816-18.078 0-32.785 14.723-32.785 32.816 0 18.102 14.711 32.824 32.785 32.824zm0-54.441c11.902 0 21.59 9.6953 21.59 21.617s-9.6836 21.625-21.59 21.625c-11.902 0-21.586-9.7031-21.586-21.625s9.6836-21.617 21.586-21.617z"
    />
  <path
      d="m358.27 56c-18.516 0-33.574 15.078-33.574 33.609 0 18.527 15.062 33.605 33.574 33.605 18.516 0 33.578-15.078 33.578-33.605 0-18.531-15.062-33.609-33.578-33.609zm0 56.016c-12.336 0-22.375-10.051-22.375-22.406 0-12.359 10.039-22.41 22.375-22.41 12.34 0 22.379 10.051 22.379 22.41 0 12.355-10.039 22.406-22.379 22.406z"
    />
  <path
      d="m540.22 325.67c17.559 0 31.844-14.297 31.844-31.871 0-17.578-14.285-31.871-31.844-31.871s-31.844 14.297-31.844 31.871c0 17.578 14.285 31.871 31.844 31.871zm0-52.543c11.383 0 20.641 9.2734 20.641 20.672s-9.2578 20.672-20.641 20.672-20.641-9.2734-20.641-20.672c-0.003906-11.395 9.2539-20.672 20.641-20.672z"
    />
  <path
      d="m573.39 139.48c0.96875-1.8984 0.77734-4.1836-0.49609-5.8906l-20.348-27.301 10.93-32.262c0.68359-2.0234 0.16016-4.2539-1.3438-5.7578-1.5078-1.5078-3.7461-2.0117-5.7578-1.3438l-32.215 10.938-27.262-20.367c-1.707-1.2734-3.9883-1.4648-5.8945-0.50781-1.9023 0.96875-3.0859 2.9297-3.0586 5.0625l0.43359 34.059-27.777 19.672c-1.7383 1.2305-2.6289 3.3477-2.293 5.4453 0.33203 2.1055 1.8359 3.8398 3.8711 4.4727l32.48 10.105 10.102 32.527c0.63281 2.0352 2.3672 3.5312 4.4727 3.8672 0.29297 0.050782 0.58594 0.070313 0.875 0.070313 1.8008 0 3.5117-0.87109 4.5742-2.3672l19.641-27.809 34.016 0.4375h0.070312c2.0977 0.003906 4.0234-1.1758 4.9805-3.0508zm-41.875-8.6211c-1.7305-0.21484-3.582 0.86328-4.6445 2.3672l-14.789 20.941-7.6055-24.496c-0.54688-1.7617-1.9258-3.1406-3.6875-3.6875l-24.473-7.6133 20.934-14.82c1.5-1.0664 2.3828-2.8008 2.3633-4.6445l-0.32812-25.648 20.527 15.336c1.4805 1.1094 3.4062 1.4102 5.1523 0.82031l24.262-8.2344-8.2344 24.297c-0.58984 1.7461-0.28516 3.668 0.81641 5.1445l15.328 20.562z"
    />
  <path
      d="m185.9 311.03c-2.0547 0.57031-3.6055 2.2539-4.0078 4.3477l-8.9297 46.77-43.613 19.117c-1.9531 0.85938-3.25 2.7461-3.3477 4.8789-0.09375 2.125 1.0273 4.1289 2.8984 5.1562l41.758 22.984 4.7617 47.387c0.21484 2.1211 1.6094 3.9375 3.6055 4.6875 0.64062 0.24219 1.3047 0.35547 1.9648 0.35547 1.3984 0 2.7773-0.52344 3.832-1.5156l34.73-32.566 46.562 10.168c2.1016 0.45312 4.2422-0.3125 5.5742-1.9805 1.332-1.668 1.5977-3.9414 0.6875-5.875l-20.289-43.117 24.012-41.098c1.0742-1.8438 1.0156-4.1328-0.16016-5.9102-1.1758-1.7773-3.2422-2.7461-5.3711-2.4727l-47.27 5.9258-31.727-35.574c-1.418-1.5938-3.6094-2.2383-5.6719-1.668zm35.871 48.719 38.945-4.8789-19.781 33.852c-0.93359 1.5977-1.0156 3.543-0.23047 5.2109l16.707 35.496-38.34-8.3672c-1.8125-0.41016-3.6836 0.12109-5.0273 1.3828l-28.613 26.824-3.9258-39.035c-0.1875-1.8359-1.2578-3.4609-2.875-4.3477l-34.387-18.926 35.914-15.746c1.6914-0.74219 2.9062-2.2695 3.2539-4.0781l7.3516-38.516 26.129 29.301c1.2305 1.375 3.0312 2.0469 4.8789 1.8281z"
    />
  <path
      d="m300.45 453.03c0.33203 2.1055 1.832 3.8398 3.8711 4.4727l32.48 10.105 10.102 32.527c0.63281 2.0352 2.3672 3.5312 4.4727 3.8672 0.29297 0.050782 0.58594 0.070313 0.875 0.070313 1.8008 0 3.5117-0.87109 4.5742-2.3672l19.641-27.809 34.016 0.4375c1.9453-0.003907 4.0898-1.1602 5.0586-3.0586 0.96875-1.8984 0.77734-4.1836-0.49609-5.8906l-20.348-27.301 10.926-32.266c0.68359-2.0195 0.16016-4.25-1.3438-5.7539-1.5078-1.5078-3.75-2.0117-5.7578-1.3438l-32.215 10.938-27.262-20.367c-1.707-1.2734-3.9922-1.4609-5.8945-0.50781-1.9023 0.96875-3.0859 2.9297-3.0586 5.0625l0.43359 34.066-27.777 19.664c-1.7383 1.2383-2.6289 3.3477-2.2969 5.4531zm38.945-17.668c1.5039-1.0664 2.3867-2.8008 2.3672-4.6445l-0.32812-25.652 20.527 15.336c1.4805 1.1094 3.4141 1.4102 5.1523 0.82031l24.258-8.2344-8.2305 24.305c-0.58984 1.7383-0.28516 3.6641 0.81641 5.1406l15.328 20.562-25.621-0.32812c-1.7617 0.125-3.582 0.86328-4.6445 2.3672l-14.789 20.941-7.6055-24.5c-0.54688-1.7617-1.9258-3.1406-3.6875-3.6875l-24.469-7.6133z"
    />
 
 </g>
</svg>
