<?xml version="1.0" encoding="UTF-8" ?>
<svg
  width="700pt"
  height="700pt"
  version="1.1"
  viewBox="0 0 700 550"
  xmlns="http://www.w3.org/2000/svg"
  xmlns:xlink="http://www.w3.org/1999/xlink"
>
 
 <g>
  <path
      d="m350 56c-123.52 0-224 84.262-224 187.84 0 92.418 78.223 169.91 186.42 185.19 18.867 35.781 48.461 60.895 88.004 74.664 0.60547 0.20703 1.2266 0.3125 1.8438 0.3125 1.5703 0 3.1094-0.66797 4.1914-1.8867 1.5078-1.6992 1.8359-4.1406 0.83984-6.1797-0.13281-0.26172-12.496-25.895-18.117-67.133 105.75-15.68 184.82-94.363 184.82-184.96 0-103.57-100.48-187.84-224-187.84zm32.227 362.45c-3.0508 0.38281-5.2188 3.1562-4.8633 6.207 3.4062 28.996 10.07 51.012 14.742 63.766-31.652-13.824-55.523-36.344-71.055-67.078-0.83594-1.6523-2.4375-2.7891-4.2773-3.0234-104.05-13.551-179.57-86.934-179.57-174.48 0-97.398 95.465-176.64 212.8-176.64s212.8 79.238 212.8 176.64c0 86.555-77.629 161.62-180.57 174.61z"
    />
  <path
      d="m432.95 148.94c-25.035-10.863-59.453-7.7617-82.945 22.016-23.492-29.777-57.91-32.863-82.949-22.016-27.656 11.992-50.938 43.066-40.59 85.449 18.051 73.98 116.7 127.64 120.89 129.88 0.82813 0.44141 1.7383 0.66406 2.6484 0.66406s1.8203-0.22266 2.6484-0.66797c4.1914-2.2461 102.83-55.902 120.89-129.88 10.348-42.387-12.934-73.453-40.594-85.445zm29.711 82.789c-15.301 62.668-96.848 112.12-112.66 121.19-15.812-9.0742-97.367-58.52-112.66-121.19-8.8008-36.043 10.816-62.395 34.164-72.516 6.9141-2.9961 15.043-4.8945 23.602-4.8945 17.176 0 36.055 7.6406 50.207 29.289 2.0742 3.1758 7.3086 3.1602 9.375 0 21.191-32.434 53.008-33.402 73.797-24.395 23.348 10.125 42.969 36.473 34.168 72.516z"
    />
  
 </g>
</svg>
