<?xml version="1.0" encoding="UTF-8" ?>
<svg
  width="700pt"
  height="700pt"
  version="1.1"
  viewBox="0 0 700 550"
  xmlns="http://www.w3.org/2000/svg"
  xmlns:xlink="http://www.w3.org/1999/xlink"
>
 <g>
  <path
      d="m131.61 367.88h0.003906l17.699-0.007812 0.042969 130.61c0 1.4844 0.58984 2.9102 1.6406 3.9609 1.0508 1.0469 2.4727 1.6367 3.9609 1.6367h0.003907l390.27-0.16016c3.0938 0 5.5977-2.5117 5.5977-5.6016l-0.039063-130.6 17.535-0.007813c3.0938 0 5.5977-2.5117 5.5977-5.6016l-0.023438-56.047c0-1.4844-0.58984-2.9102-1.6406-3.9609-1.0508-1.0469-2.4727-1.6367-3.9609-1.6367h-0.003907l-65.918 0.027343-0.074219-105.83 13.199-0.003906c3.0938 0 5.5977-2.5117 5.5977-5.6016l-0.023438-56.043c0-1.4844-0.58984-2.9102-1.6406-3.9609-1.0508-1.0469-2.4727-1.6367-3.9609-1.6367h-0.003906l-21.879 0.007813c11.016-10.914 18.613-27.105 15.336-41.797-3.0195-13.531-15.848-29.66-59.848-29.66h-0.070313c-36.785 0.015624-70.352 14.293-88.832 37.469-3.75-1.2969-7.7031-2.0039-11.77-2.0039h-0.019532c-3.2461 0-6.3789 0.48047-9.3867 1.3008-18.609-22.66-52.133-36.684-88.129-36.684h-0.0625c-44.016 0.015625-56.859 16.191-59.887 29.758-3.1797 14.27 4.3359 30.648 15.273 41.73l-21.793 0.007812c-1.4844 0-2.9102 0.58984-3.9609 1.6406-1.0508 1.0547-1.6367 2.4766-1.6367 3.9609l0.023438 56.043c0 3.0938 2.5078 5.5977 5.6016 5.5977h0.003907l13.203-0.003906 0.078126 105.84-66.129 0.027344c-1.4844 0-2.9102 0.58984-3.9609 1.6406-1.0508 1.0547-1.6367 2.4766-1.6367 3.9609l0.023437 56.043c0.003907 3.0938 2.5117 5.5977 5.6016 5.5977zm28.902-0.011718 121.84-0.050782 0.035156 125-121.84 0.050781zm246.04-0.097656 0.035156 125-112.99 0.046875-0.035156-125zm133.07 124.95-121.84 0.050782-0.035156-125 121.83-0.050781zm-48.445-192.23-104.41 0.042968-0.078125-105.83 104.41-0.042969zm-168.77 0.070312-0.078125-105.84 53.152-0.023437 0.078125 105.83zm126.61-233.4h0.066406c28.535 0 45.91 7.4219 48.918 20.898 3.168 14.207-9.8789 32.961-22.797 39.02-0.18359 0.085937-0.29688 0.24219-0.46484 0.34375l-89.164 0.035156c-0.64844-9.2656-4.3711-17.898-10.703-24.551-1.4531-1.5234-3.0234-2.8672-4.6602-4.1055 16.637-19.617 46.23-31.625 78.805-31.641zm-100.62 35.465h0.011719c6.9141 0 13.43 2.8438 18.352 8.0078 4.3438 4.5586 6.8672 10.473 7.4844 16.832l-51.664 0.019531c1.3633-13.922 12.348-24.855 25.816-24.859zm-123.71 24.801c-12.941-6.0781-26.008-24.914-22.828-39.191 3.0156-13.527 20.402-20.984 48.961-20.996h0.058594c31.469 0 60.664 11.512 77.539 30.293-9.6641 6.4336-16.293 17.363-17.172 29.953l-86.43 0.035156c-0.050781-0.019531-0.078125-0.070312-0.12891-0.09375zm-34.676 11.312 319.87-0.12891 0.015625 44.844-319.86 0.12891zm18.828 56.035 102.3-0.042969 0.078126 105.84-102.29 0.042969zm353.86 116.89 0.015626 44.848-425.5 0.16797-0.019531-44.844z"
    /> 
  </g>
</svg>
