<?xml version="1.0" encoding="UTF-8" ?>
<svg
  width="700pt"
  height="700pt"
  version="1.1"
  viewBox="0 0 700 550"
  xmlns="http://www.w3.org/2000/svg"
  xmlns:xlink="http://www.w3.org/1999/xlink"
>

 <g>
  <path
      d="m350.01 477.9c37.648-29.148 191.12-152.45 223.88-248.69 10.566-31.047 5.9453-63.957-8.9883-91.105-9.6758-17.59-23.621-32.727-40.523-43.344-16.75-10.516-36.441-16.598-57.777-16.23-32.742 0.57031-69.688 16.348-106.53 54.484-5.3438 5.543-14.18 5.7305-19.723 0.38672l-0.38672-0.38672c-36.844-38.137-73.785-53.91-106.53-54.484-21.336-0.37109-41.027 5.7109-57.777 16.23-16.902 10.602-30.863 25.738-40.523 43.344-14.918 27.148-19.539 60.062-8.9883 91.105 32.742 96.266 186.23 219.54 223.88 248.69zm250.32-239.74c-39.445 115.99-234.7 262.97-241.75 268.27-4.8398 3.7617-11.777 4.0156-16.918 0.15234-0.57031-0.4375-201.84-150.46-241.96-268.42-13.223-38.859-7.5586-79.836 10.953-113.5 11.895-21.656 29.148-40.32 50.148-53.508 21.152-13.273 46.051-20.949 73.062-20.48 36.574 0.63672 76.762 16.18 116.16 53.105 39.395-36.926 79.582-52.469 116.16-53.105 27.016-0.46875 51.93 7.207 73.062 20.48 21 13.172 38.254 31.852 50.148 53.508 18.496 33.668 24.176 74.645 10.953 113.5z"
    />
  
 </g>
</svg>
