<?xml version="1.0" encoding="UTF-8" ?>
<svg
  width="700pt"
  height="700pt"
  version="1.1"
  viewBox="0 0 700 550"
  xmlns="http://www.w3.org/2000/svg"
  xmlns:xlink="http://www.w3.org/1999/xlink"
>
 <g>
  <path
      d="m554.94 252.8v-169.56c0-15.023-12.223-27.246-27.246-27.246h-355.38c-15.023 0-27.246 12.223-27.246 27.246v168.05c-11.734 8.9805-19.062 23.105-19.062 38.688v144.66c0 3.0938 2.5039 5.6016 5.6016 5.6016h40.082l-0.007813 58.148c0 3.0938 2.5039 5.6016 5.6016 5.6016 3.0898 0 5.6016-2.5078 5.6016-5.6016l0.003906-58.148h334.24l-0.007813 58.148c0 3.0938 2.5039 5.6016 5.6016 5.6016 3.0898 0 5.6016-2.5078 5.6016-5.6016l0.003906-58.148h40.078c3.0938 0 5.6016-2.5078 5.6016-5.6016v-143.2c0-15.613-7.3047-29.66-19.062-38.645zm-398.67-169.56c0-8.8477 7.1953-16.047 16.043-16.047h355.38c8.8477 0 16.047 7.1953 16.047 16.047l-0.003906 163.13c-2.5273-1.0352-5.168-1.8828-7.9141-2.5039-9.4805-2.1523-18.824-4.0898-28.078-5.8867l0.003906-61.996c0-13.945-11.348-25.293-25.293-25.293h-112.76c-7.9961 0-15.055 3.8047-19.691 9.6172-4.6367-5.8125-11.695-9.6172-19.691-9.6172h-112.76c-13.945 0-25.293 11.348-25.293 25.293v60.172c-11.016 2.1992-20.914 4.457-29.559 6.6211-2.2227 0.55859-4.3555 1.2969-6.4297 2.1367zm188.13 138.61c-56.414-0.13672-104.16 5.4766-140.95 12.176v-58.035c0-7.7695 6.3203-14.094 14.094-14.094h112.76c7.7695 0 14.09 6.3242 14.09 14.094zm152.15 14.043c-51.008-9.2344-98.309-13.258-140.95-13.93v-45.969c0-7.7695 6.3203-14.094 14.094-14.094h112.76c7.7695 0 14.094 6.3203 14.094 14.094zm-359.35 193.16v-61.602h425.6v61.602zm425.6-72.801h-425.6v-66.262c0-17.23 11.605-32.176 28.219-36.336 38.75-9.7227 102.52-21.293 184.2-20.57 0.13281 0.007813 0.24609 0.074219 0.38281 0.074219 0.12109 0 0.21875-0.058594 0.33594-0.066406 53.906 0.52344 115.56 6.3906 183 21.707 17.348 3.9414 29.461 19.012 29.461 36.652z"
    />
  </g>
</svg>
