<?xml version="1.0" encoding="UTF-8" ?>
<svg
  width="700pt"
  height="700pt"
  version="1.1"
  viewBox="0 0 700 550"
  xmlns="http://www.w3.org/2000/svg"
  xmlns:xlink="http://www.w3.org/1999/xlink"
>

 <g>
  <path
      d="m571.32 93.875c-6.4141-19.059-23.402-25.473-36.477-23.383-12.551 2.0195-21.441 10.773-24.105 23.102-13.805-3.6484-25.625 2.4023-31.887 11.098-7.6328 10.609-9.4297 28.477 4.6797 42.645 14.305 14.379 36.137 17.215 51.172 17.215 9.3008 0 15.996-1.0898 16.691-1.2031 1.418-0.24219 2.6797-1.0117 3.543-2.1602 1.0977-1.4688 26.828-36.254 16.383-67.312zm-24.043 58.727c-8.5703 1.0078-39.426 3.2812-55.805-13.164-9.5547-9.5977-8.6562-21.082-3.5312-28.203 2.9922-4.1523 8.0156-7.5586 14.562-7.5586 3.1719 0 6.6992 0.79688 10.523 2.6953 1.7266 0.86328 3.7852 0.76562 5.4258-0.24609 1.6445-1.0117 2.6523-2.8008 2.6641-4.7344 0.082031-12.801 8.0625-18.645 15.504-19.84 8.8438-1.4258 19.727 2.9531 24.086 15.902 7.3555 21.863-8.6406 48.031-13.43 55.148z"
    />
  <path
      d="m548.39 272.32c-7.8242-7.1523-20.492-10.605-33.156-4.3086-5.0625-11.387-15.309-18.086-27.984-17.516-13.156 0.58594-28.414 10.277-30.82 30.164-3.9062 32.324 28.059 60.906 29.422 62.102 1.0234 0.90234 2.3398 1.3984 3.7031 1.3984 0.070312 0 0.14062 0 0.21875-0.003906 1.8203-0.070313 44.859-2.0391 62.676-29.371 10.871-16.68 5.5195-33.703-4.0586-42.465zm-5.3242 36.352c-12.578 19.293-42.926 23.355-51.465 24.129-6.0977-5.9492-26.801-28.012-24.047-50.793 1.6172-13.414 11.609-19.938 20.203-20.32 0.27344-0.015625 0.55078-0.023438 0.83203-0.023438 7.2344 0 15.543 4.1953 18.074 16.094 0.40625 1.8906 1.7539 3.4453 3.5781 4.1016 1.8047 0.65234 3.8438 0.33203 5.3633-0.86328 10.176-8.0156 19.711-5.4688 25.227-0.41016 6.4062 5.8555 9.5781 16.812 2.2344 28.086z"
    />
  <path
      d="m206.21 504.02c3.6523 0 6.0156-0.19141 6.4023-0.22266 1.4219-0.12109 2.75-0.78906 3.7031-1.8555 1.1328-1.2734 27.68-31.539 20.395-61.156-4.4883-18.27-19.863-25.535-32.211-24.652-9.8594 0.74219-20.293 7.0117-24.277 19.336-12.469-4.207-23.828 0.49609-30.297 8.0781-7.9609 9.3203-11.043 25.879 1.0234 40.199 15.23 18.074 42.781 20.273 55.262 20.273zm-47.77-53.199c2.7617-3.2305 7.0312-5.7695 12.293-5.7695 3.2227 0 6.8125 0.95312 10.664 3.2773 1.6523 0.99609 3.6953 1.0664 5.4258 0.20312 1.7227-0.87891 2.8711-2.5742 3.0469-4.4961 1.043-11.555 8.6797-16.219 15.473-16.734 8.1055-0.60156 17.539 4.1445 20.496 16.156 5.0039 20.375-11.387 42.945-16.449 49.301-8.1602 0.28516-36.219-0.027344-49.875-16.227-7.8984-9.3828-6.2305-19.672-1.0742-25.711z"
    />
  <path
      d="m364.22 208.62c-17.844-14.715-30.145-36.07-32.73-60.703-5.9023-56.219-56.793-97.195-113.53-91.367-3.0742 0.31641-5.3164 3.0664-5 6.1484 0.31641 3.0742 3.0312 5.2539 6.1484 5 50.531-5.1953 95.988 31.297 101.25 81.391 2.9023 27.695 16.73 51.691 36.773 68.219-15.406 21.066-22.098 46.746-18.871 72.586 5.9297 56.578 57.684 99.695 113.31 94.461 0.082032-0.003907 0.16797-0.011719 0.25-0.015625l9.7734-1.0078c50.547-5.2266 95.988 31.305 101.24 81.391 0.30078 2.875 2.7305 5.0156 5.5625 5.0156 0.19141 0 0.39453-0.011719 0.58984-0.03125 3.0742-0.32422 5.3047-3.0742 4.9805-6.1523-5.8906-56.215-56.75-97.168-113.53-91.367l-8.9531 0.92578c-0.027343 0-0.054687 0.003907-0.082031 0.003907-49.957 5.1719-96.676-33.504-102.03-84.504-2.875-23.066 3.0664-45.91 16.762-64.656 19.254 12.676 42.816 19.059 67.527 16.516 1.1992-0.078125 29.508-2.0625 42.551-17.195 4.9609-5.7578 7.1406-12.59 6.4922-20.289-0.65234-7.7422-3.9688-14.066-9.8555-18.781-15.398-12.344-43.543-8.6836-44.641-8.5195-24.914 3.0469-47.352 14.652-63.992 32.934zm65.422-21.824c6.8125-0.90625 26.574-1.582 36.227 6.1641 3.4336 2.7617 5.293 6.3477 5.6875 10.969 0.39453 4.6523-0.85156 8.5859-3.8125 12.02-8.2539 9.6016-27.918 12.891-35.012 13.359-21.633 2.2461-42.371-3.1836-59.391-14.055 14.746-15.77 34.434-25.785 56.301-28.457z"
    />
  <path
      d="m212.95 222.46h0.16016l7.957-0.011719c41.094 0.15234 75.809 35.523 75.883 77.551 0.39844 18.801-6.1562 36.695-18.543 50.781-15.379-12.281-34.344-18.949-54.172-18.949h-0.17578c-1.0195-0.027344-25-0.77734-37.371 10.926-4.7852 4.5273-7.2734 10.215-7.3984 16.902-0.12109 6.7383 2.1836 12.473 6.8398 17.062 11.973 11.781 35.98 11.051 36.902 11.07 20.797-0.43359 40.332-8.0391 55.73-21.57 13.512 13.988 20.949 32.277 20.984 51.703 0.089844 47.496 39.09 86.078 86.969 86.078 3.1562 0.03125 5.7461-2.4648 5.7422-5.6094-0.007813-3.0898-2.5117-5.5898-5.6016-5.5898-0.039063 0.003907-0.09375 0-0.14062 0-41.711 0-75.688-33.574-75.766-74.898-0.039063-22.406-8.6367-43.492-24.254-59.586 14.324-16.219 21.914-36.848 21.453-58.445-0.085938-47.855-39.707-88.254-86.707-88.621h-0.16406-0.32812-0.14844c-0.082032-0.003906-0.16406-0.003906-0.24609 0l-7.4648 0.011719h-0.14062c-41.703 0-75.676-33.566-75.754-74.895-0.003907-3.0898-2.5117-5.5898-5.6016-5.5898h-0.011718c-3.0859 0.003906-5.5898 2.5117-5.5859 5.6094 0.085938 47.496 39.078 86.07 86.953 86.07zm9.7852 154.14c-5.6445 0.16016-21.68-0.89062-28.762-7.8711-2.4453-2.4102-3.5508-5.2266-3.4844-8.8594 0.066406-3.6133 1.3359-6.5508 3.8828-8.9648 6.8906-6.5391 21.41-7.8984 28.109-7.8984 0.50391 0 0.96875 0.003906 1.3789 0.023438h0.14062c16.992 0 33.129 5.5078 46.344 15.668-13.258 11.23-29.883 17.531-47.609 17.902z"
    />
  <path
      d="m492.39 448.55c0-18.145-14.871-32.906-33.152-32.906s-33.156 14.762-33.156 32.906 14.875 32.906 33.156 32.906c18.285 0 33.152-14.762 33.152-32.906zm-55.109 0c0-11.973 9.8477-21.707 21.957-21.707 12.102 0 21.953 9.7344 21.953 21.707s-9.8477 21.707-21.953 21.707c-12.105 0-21.957-9.7344-21.957-21.707z"
    />
  <path
      d="m176.05 306.79c18.281 0 33.156-14.762 33.156-32.898 0-18.145-14.875-32.906-33.156-32.906s-33.152 14.762-33.152 32.906c0 18.141 14.871 32.898 33.152 32.898zm0-54.605c12.109 0 21.957 9.7344 21.957 21.707 0 11.965-9.8477 21.699-21.957 21.699-12.102 0-21.953-9.7344-21.953-21.699 0-11.973 9.8516-21.707 21.953-21.707z"
    />
  <path
      d="m188.56 139.9c0 18.145 14.871 32.906 33.152 32.906s33.152-14.762 33.152-32.906c0-18.145-14.871-32.906-33.152-32.906s-33.152 14.762-33.152 32.906zm33.152-21.707c12.102 0 21.953 9.7344 21.953 21.707s-9.8477 21.707-21.953 21.707c-12.102 0-21.953-9.7344-21.953-21.707s9.8516-21.707 21.953-21.707z"
    />
  <path
      d="m443.67 102.47c0-18.145-14.871-32.906-33.152-32.906s-33.152 14.762-33.152 32.906c0 18.145 14.871 32.906 33.152 32.906 18.285 0 33.152-14.762 33.152-32.906zm-55.102 0c0-11.973 9.8477-21.707 21.953-21.707 12.102 0 21.953 9.7344 21.953 21.707s-9.8477 21.707-21.953 21.707-21.953-9.7344-21.953-21.707z"
    />
 
 </g>
</svg>
