<?xml version="1.0" encoding="UTF-8" ?>
<svg
  width="700pt"
  height="700pt"
  version="1.1"
  viewBox="0 0 700 550"
  xmlns="http://www.w3.org/2000/svg"
  xmlns:xlink="http://www.w3.org/1999/xlink"
>
 <g>
  <path
      d="m321.2 96.5c0.71875 0 1.4531-0.14062 2.1562-0.43359 2.8555-1.1914 4.2031-4.4727 3.0117-7.3242l-12.316-29.488c-1.1953-2.8555-4.4805-4.1953-7.3242-3.0117-2.8555 1.1914-4.2031 4.4727-3.0117 7.3242l12.316 29.488c0.89844 2.1484 2.9766 3.4453 5.168 3.4453z"
    />
  <path
      d="m268.61 96.09c-1.3359 2.7891-0.16016 6.1328 2.6289 7.4688l28.816 13.805c0.78125 0.375 1.6055 0.55078 2.418 0.55078 2.0859 0 4.0898-1.1719 5.0547-3.1797 1.3359-2.7891 0.16016-6.1328-2.6289-7.4688l-28.816-13.805c-2.793-1.3359-6.1367-0.16016-7.4727 2.6289z"
    />
  <path
      d="m161.02 472.76c-2.9844-0.73437-6.0352 1.0977-6.7695 4.1055-0.73438 3.0039 1.1016 6.0352 4.1055 6.7695l82.445 20.203c0.44922 0.11328 0.89844 0.16406 1.3398 0.16406 2.5195 0 4.8086-1.7109 5.4336-4.2695 0.73438-3.0039-1.1016-6.0352-4.1055-6.7695l-35.785-8.7695 25.469-104.41c0.73438 0.050782 1.4648 0.12891 2.1992 0.12891 33.941 0 72.094-51.406 89.668-123.14 5.4375-22.184 16.402-77.73 17.102-100.4 0.082031-2.6406-1.6953-4.9805-4.2656-5.6094l-102.55-25.133c-2.5508-0.61719-5.2227 0.625-6.375 3.0039-9.8594 20.426-25.816 74.746-31.254 96.934-17.965 73.301-7.0508 137.67 24.594 151.57l-25.465 104.39zm76.129-335.14 93.539 22.922c-1.1484 15.684-5.6797 41.875-10.086 63.91-13.172-6.5312-22.09-13.805-31.43-21.469-14.91-12.234-30.359-24.859-63.414-33.988 3.9531-12.129 7.957-23.418 11.391-31.375zm-28.594 90.621c2.6914-10.984 7.9922-29.938 13.801-48.57 31.039 8.4961 45.008 19.906 59.711 31.973 10.008 8.2148 20.406 16.684 36.207 24.113-1.5273 7.2148-2.9609 13.59-4.1328 18.363-16.863 68.801-55.297 120.99-83.898 113.99-0.003906 0-0.003906 0-0.007813-0.003907-28.605-7.0234-38.539-71.07-21.68-139.87z"
    />
  <path
      d="m231.14 325.34c2.8633-1.1719 4.2344-4.4414 3.0586-7.3047-3.5117-8.5742-4.832-37.078 3.4883-71.027 0.73438-3.0039-1.1016-6.0352-4.1055-6.7695-2.9922-0.74219-6.0352 1.0977-6.7695 4.1055-8.4844 34.621-7.8633 65.992-2.9727 77.934 0.88672 2.168 2.9766 3.4805 5.1836 3.4805 0.70312 0.003906 1.4219-0.13281 2.1172-0.41797z"
    />
  <path
      d="m513.87 259.26c5.0039-28.449 2.8906-63.988-5.9531-100.07-5.4375-22.188-21.395-76.508-31.254-96.934-1.1484-2.375-3.7969-3.6406-6.375-3.0039l-102.55 25.133c-2.5703 0.62891-4.3477 2.9688-4.2656 5.6094 0.69922 22.672 11.664 78.219 17.102 100.4 8.8398 36.082 23.398 68.574 40.992 91.488 15.883 20.688 32.852 31.66 48.594 31.66 0.76562 0 1.5234-0.082031 2.2812-0.13672l25.469 104.41-35.785 8.7695c-3.0039 0.73438-4.8438 3.7695-4.1055 6.7695 0.625 2.5586 2.9141 4.2695 5.4336 4.2695 0.44141 0 0.89062-0.050782 1.3359-0.16016l82.445-20.203c3.0039-0.73438 4.8438-3.7695 4.1055-6.7695-0.73438-3.0078-3.7969-4.8438-6.7695-4.1055l-35.785 8.7695-25.465-104.39c15.059-6.5742 25.812-24.559 30.555-51.504zm-45.422-188.03c2.332 5.4023 4.9258 12.344 7.5859 20.027-32.598 9.2578-47.844 21.895-62.555 34.145-9.1445 7.6094-17.863 14.84-30.68 21.359-3.625-19.176-6.9336-39.543-7.8906-52.609zm6.8984 230.49c-13.059 3.2031-29.434-6.5117-44.902-26.66-16.668-21.707-30.52-52.723-38.996-87.332-1.7461-7.1289-4.0742-17.77-6.4414-29.59 15.535-7.4648 25.777-15.922 35.633-24.129 14.516-12.082 28.309-23.512 58.961-32.121 7.1562 21.887 14.191 46.715 17.438 59.961 8.4805 34.613 10.539 68.516 5.8008 95.469-4.3984 25.02-14.422 41.199-27.492 44.402z"
    />
  <path
      d="m469.17 158.71c-3.0039 0.73438-4.8398 3.7695-4.1055 6.7734 10.195 41.609 8.5273 76.668 4.1914 87.262-1.1719 2.8633 0.19531 6.1328 3.0586 7.3047 0.69531 0.28516 1.4141 0.42188 2.1211 0.42188 2.207 0 4.2969-1.3125 5.1836-3.4805 5.8828-14.371 6.5938-52.258-3.6797-94.176-0.73438-3-3.7734-4.832-6.7695-4.1055z"
    />

 </g>
</svg>
