<?xml version="1.0" encoding="UTF-8" ?>
<svg
  width="700pt"
  height="700pt"
  version="1.1"
  viewBox="0 0 700 550"
  xmlns="http://www.w3.org/2000/svg"
  xmlns:xlink="http://www.w3.org/1999/xlink"
>
 <g>
  <path
      d="m298.61 503.92c44.199 0 88.406-16.824 122.05-50.473 17.98-17.984 31.461-39.117 40.098-62.809 22.883-8.3438 44.355-21.641 62.684-39.969 67.297-67.301 67.297-176.81 0-244.11-67.297-67.297-176.81-67.297-244.11 0-17.977 17.98-31.469 39.117-40.113 62.816-22.879 8.3438-44.344 21.641-62.668 39.965-67.297 67.301-67.297 176.81 0 244.11 33.652 33.645 77.855 50.469 122.05 50.469zm-11.355-389.45c62.941-62.934 165.34-62.926 228.27 0 62.934 62.934 62.934 165.34 0 228.27-62.938 62.934-165.34 62.934-228.27 0-31.949-31.953-49.047-76.051-47.09-121.19 8.4219-4.5 17.41-8.0625 26.84-10.539-0.75391 5.8242-1.2656 11.699-1.2656 17.594 0 74.801 60.852 135.65 135.65 135.65s135.65-60.852 135.65-135.65c0-74.797-60.855-135.65-135.65-135.65-47.664 0-92.375 25.48-116.72 66.504-10.676 0.85937-21.277 2.707-31.672 5.5391 8.0547-18.848 19.551-35.816 34.258-50.527zm114.41 286.66c-23.039 33.949-61.719 54.711-103.06 54.711-68.621 0-124.45-55.832-124.45-124.45 0-42.762 21.684-80.551 54.629-102.96-0.027344 45.676 18.117 89.801 50.547 122.24 33.648 33.648 77.852 50.473 122.05 50.473 0.097656-0.003906 0.1875-0.007813 0.28125-0.007813zm19.75-49.703c-6.5234 1.0586-13.211 1.6328-20.027 1.6328-68.621 0-124.45-55.832-124.45-124.45 0-6.7305 0.61328-13.453 1.6797-20.047 6.5117-1.0547 13.188-1.6289 19.992-1.6289 68.621 0 124.45 55.832 124.45 124.45 0 6.7266-0.57812 13.457-1.6445 20.043zm49.777-19.844c0.027344-45.672-18.121-89.84-50.531-122.25-33.723-33.723-78.043-50.539-122.34-50.469 23.031-33.918 61.844-54.711 103.07-54.711 68.621 0 124.45 55.832 124.45 124.45 0 42.77-21.695 80.566-54.648 102.98zm-286.72-114.33c62.941-62.934 165.34-62.93 228.27 0 31.926 31.93 49.059 76.062 47.102 121.18-8.4219 4.5-17.41 8.0664-26.84 10.543 0.75391-5.8203 1.2539-11.699 1.2539-17.59 0-74.801-60.852-135.65-135.65-135.65-74.793 0-135.65 60.852-135.65 135.65s60.852 135.65 135.65 135.65c47.781 0 92.285-25.449 116.67-66.5 10.691-0.85547 21.309-2.707 31.719-5.5391-8.0547 18.844-19.539 35.809-34.25 50.523-62.938 62.938-165.34 62.934-228.27 0-62.934-62.938-62.934-165.34-0.003906-228.27z"
    />
 </g>
</svg>
