<?xml version="1.0" encoding="UTF-8" ?>
<svg
  width="700pt"
  height="700pt"
  version="1.1"
  viewBox="0 0 700 550"
  xmlns="http://www.w3.org/2000/svg"
  xmlns:xlink="http://www.w3.org/1999/xlink"
>
 <g>
  <path
      d="m184.24 504h331.53c11.016 0 19.973-8.957 19.973-19.969l-0.003906-408.06c0-11.012-8.957-19.969-19.973-19.969h-331.52c-11.016 0-19.973 8.957-19.973 19.969v408.06c0 11.012 8.957 19.969 19.973 19.969zm96.953-373.33h137.62c14.953 0 27.113-11.336 27.113-25.273v-7.3164h42.383v360.11h-276.61v-360.11h42.383v7.3164c0 13.938 12.164 25.273 27.113 25.273zm153.53-25.273c0 7.7617-7.1367 14.074-15.914 14.074h-137.62c-8.7773 0-15.914-6.3125-15.914-14.074v-7.3164h169.45zm-169.45-18.52v-19.676h169.45v19.676zm-89.812-10.906c0-4.8359 3.9375-8.7695 8.7734-8.7695h69.84v19.676h-47.984c-3.0938 0-5.6016 2.5078-5.6016 5.6016v371.31c0 3.0938 2.5039 5.6016 5.6016 5.6016h287.81c3.0938 0 5.6016-2.5078 5.6016-5.6016v-371.31c0-3.0938-2.5039-5.6016-5.6016-5.6016h-47.984l0.003906-19.676h69.84c4.8359 0 8.7734 3.9336 8.7734 8.7695v408.06c0 4.8359-3.9375 8.7695-8.7734 8.7695h-331.52c-4.8359 0-8.7734-3.9336-8.7734-8.7695z"
    />
  <path
      d="m307.54 226.91c0.67969 0.27734 1.3945 0.41406 2.1094 0.41406 0.71484 0 1.4336-0.13672 2.1094-0.41406 1.3906-0.5625 34.082-14.141 40.172-40.762 3.8281-16.727-5.5273-28.871-15.844-33.078-7.9414-3.2266-18.418-2.4453-26.441 5.3867-8.0234-7.8359-18.508-8.6328-26.441-5.3828-10.312 4.207-19.672 16.352-15.836 33.07 6.0938 26.629 38.785 40.203 40.172 40.766zm-20.102-63.465c1.7266-0.70312 3.4453-1.0469 5.1172-1.0469 4.7461 0 9.1367 2.7656 12.32 7.9609 2.0352 3.3242 7.5156 3.3203 9.5469-0.003906 4.3047-7.0234 10.828-9.6016 17.434-6.9102 6.0703 2.4766 11.527 9.8555 9.1602 20.207-4.0156 17.543-24.664 28.715-31.375 31.93-6.7148-3.1953-27.328-14.312-31.359-31.93-2.3594-10.352 3.0898-17.73 9.1562-20.207z"
    />
  <path
      d="m348.06 289.45c6.0938 26.621 38.785 40.199 40.172 40.762 0.67969 0.27734 1.3945 0.41406 2.1094 0.41406s1.4336-0.13672 2.1094-0.41406c1.3906-0.56641 34.074-14.141 40.172-40.762 3.8281-16.727-5.5273-28.871-15.844-33.078-7.957-3.2422-18.426-2.4453-26.441 5.3867-8.0156-7.8398-18.508-8.6289-26.441-5.3867-10.305 4.207-19.664 16.352-15.836 33.078zm20.07-22.707c1.7266-0.70312 3.4453-1.0469 5.1172-1.0469 4.7461 0 9.1367 2.7656 12.32 7.9609 2.0352 3.3242 7.5156 3.3203 9.5469-0.003906 4.3086-7.0312 10.844-9.5938 17.434-6.9102 6.0703 2.4727 11.527 9.8555 9.1602 20.207-4.0195 17.539-24.648 28.711-31.367 31.926-6.7227-3.2148-27.355-14.387-31.367-31.926-2.3633-10.352 3.0859-17.73 9.1562-20.207z"
    />
  <path
      d="m373.5 178.93h54.383c3.0938 0 5.6016-2.5078 5.6016-5.6016s-2.5039-5.6016-5.6016-5.6016h-54.383c-3.0938 0-5.6016 2.5078-5.6016 5.6016 0.003906 3.0938 2.5078 5.6016 5.6016 5.6016z"
    />
  <path
      d="m373.5 209.48h54.383c3.0938 0 5.6016-2.5078 5.6016-5.6016s-2.5039-5.6016-5.6016-5.6016h-54.383c-3.0938 0-5.6016 2.5078-5.6016 5.6016 0.003906 3.0938 2.5078 5.6016 5.6016 5.6016z"
    />
  <path
      d="m336.09 356.41c-7.9414-3.2305-18.418-2.4453-26.441 5.3867-8.0234-7.8359-18.508-8.6367-26.441-5.3828-10.312 4.207-19.672 16.352-15.836 33.07 6.0859 26.625 38.777 40.199 40.168 40.766 0.67969 0.27734 1.3945 0.41406 2.1094 0.41406s1.4336-0.13672 2.1094-0.41406c1.3906-0.5625 34.082-14.141 40.172-40.762 3.832-16.727-5.5273-28.871-15.84-33.078zm4.9258 30.578c-4.0156 17.543-24.664 28.715-31.375 31.93-6.7148-3.1953-27.328-14.312-31.359-31.93-2.3672-10.352 3.0859-17.73 9.1484-20.207 1.7266-0.70312 3.4453-1.0469 5.1172-1.0469 4.7461 0 9.1367 2.7656 12.32 7.9609 2.0352 3.3242 7.5156 3.3203 9.5469-0.003906 4.3047-7.0234 10.828-9.6055 17.434-6.9102 6.0781 2.4766 11.535 9.8555 9.168 20.207z"
    />
  <path
      d="m427.89 371.05h-54.383c-3.0938 0-5.6016 2.5078-5.6016 5.6016s2.5039 5.6016 5.6016 5.6016h54.383c3.0938 0 5.6016-2.5078 5.6016-5.6016-0.003906-3.0938-2.5078-5.6016-5.6016-5.6016z"
    />
  <path
      d="m427.89 401.61h-54.383c-3.0938 0-5.6016 2.5078-5.6016 5.6016s2.5039 5.6016 5.6016 5.6016h54.383c3.0938 0 5.6016-2.5078 5.6016-5.6016-0.003906-3.0938-2.5078-5.6016-5.6016-5.6016z"
    />
  <path
      d="m272.11 287.44h54.383c3.0938 0 5.6016-2.5078 5.6016-5.6016s-2.5039-5.6016-5.6016-5.6016h-54.383c-3.0938 0-5.6016 2.5078-5.6016 5.6016 0.003906 3.0977 2.5078 5.6016 5.6016 5.6016z"
    />
  <path
      d="m272.11 318h54.383c3.0938 0 5.6016-2.5078 5.6016-5.6016s-2.5039-5.6016-5.6016-5.6016h-54.383c-3.0938 0-5.6016 2.5078-5.6016 5.6016 0.003906 3.0938 2.5078 5.6016 5.6016 5.6016z"
    />
   </g>
</svg>
