<?xml version="1.0" encoding="UTF-8" ?>
<svg
  width="700pt"
  height="700pt"
  version="1.1"
  viewBox="0 0 700 550"
  xmlns="http://www.w3.org/2000/svg"
  xmlns:xlink="http://www.w3.org/1999/xlink"
>

 <g>
  <path
      d="m482.89 131.28c-5.4648-5.4609-12.719-8.4688-20.441-8.4688-7.7227 0-14.98 3.0078-20.438 8.4648-5.4648 5.4609-8.4727 12.719-8.4727 20.441s3.0078 14.98 8.4727 20.438c5.6328 5.6367 13.031 8.4531 20.438 8.4531 7.3984 0 14.805-2.8164 20.441-8.4492v-0.003906c11.27-11.27 11.27-29.609 0-40.875zm-7.9219 32.961c-6.9141 6.9023-18.141 6.9023-25.043 0-3.3477-3.3477-5.1914-7.793-5.1914-12.52 0-4.7305 1.8438-9.1758 5.1914-12.52s7.7891-5.1875 12.52-5.1875c4.7305 0 9.1758 1.8438 12.523 5.1875 6.9023 6.8984 6.9023 18.129 0 25.039z"
    />
  <path
      d="m350 93.691c-15.941 0-28.906 12.965-28.906 28.906 0 15.938 12.965 28.91 28.906 28.91s28.906-12.969 28.906-28.906c0-15.941-12.965-28.91-28.906-28.91zm0 46.613c-9.7617 0-17.707-7.9414-17.707-17.707 0-9.7617 7.9453-17.707 17.707-17.707s17.707 7.9414 17.707 17.707-7.9453 17.707-17.707 17.707z"
    />
  <path
      d="m257.99 131.28c-5.457-5.457-12.715-8.4648-20.438-8.4648-7.7227 0-14.98 3.0078-20.441 8.4688-11.27 11.27-11.27 29.609 0 40.883 5.6367 5.6328 13.039 8.4492 20.441 8.4492 7.3984 0 14.805-2.8164 20.438-8.4531 5.4648-5.4609 8.4727-12.719 8.4727-20.438 0-7.7227-3.0078-14.98-8.4727-20.438v-0.007812zm-7.918 32.965c-6.9023 6.9023-18.141 6.9023-25.043 0-6.9023-6.9062-6.9023-18.137 0-25.043 3.3477-3.3438 7.793-5.1875 12.523-5.1875 4.7305 0 9.1719 1.8438 12.52 5.1875v0.003906c3.3477 3.3398 5.1914 7.7891 5.1914 12.52 0 4.7227-1.8438 9.1719-5.1914 12.52z"
    />
  <path
      d="m510.5 492.8h-30.406c-3.0938 0-5.6016 2.5078-5.6016 5.6016s2.5039 5.6016 5.6016 5.6016h72.012c3.0938 0 5.6016-2.5078 5.6016-5.6016s-2.5039-5.6016-5.6016-5.6016h-30.406v-236.27c0-20.547-3.625-40.578-10.695-59.637 5.3477-6.4727 7.1289-15.109 4.8789-23.039 7.8789-4.4023 13-12.801 13-22.137s-5.1172-17.734-13-22.137c2.4609-8.6836 0.14062-18.246-6.457-24.848-6.6016-6.5938-16.156-8.918-24.852-6.4609-4.3984-7.8789-12.797-13-22.137-13-9.3359 0-17.734 5.1211-22.137 13-8.6836-2.4648-18.25-0.13672-24.844 6.457-1.2344 1.2344-2.2695 2.5977-3.1992 4.0156-2.2227-3.3945-5.2109-6.2734-8.8164-8.2852 2.4609-8.6836 0.14063-18.246-6.4648-24.848-6.5938-6.5977-16.16-8.9297-24.844-6.457-4.4023-7.8828-12.801-13.004-22.137-13.004s-17.734 5.1211-22.137 13c-8.6914-2.4688-18.242-0.14062-24.844 6.457-6.6016 6.5977-8.918 16.16-6.4648 24.848-3.6055 2.0117-6.5898 4.8906-8.8164 8.2852-0.93359-1.418-1.9648-2.7812-3.1992-4.0156-6.5938-6.5938-16.156-8.9219-24.844-6.457-4.4023-7.8789-12.801-13-22.137-13-9.3398 0-17.742 5.1211-22.137 13-8.707-2.4648-18.25-0.13672-24.852 6.4609-6.6016 6.6016-8.918 16.164-6.457 24.848-7.8789 4.4023-13 12.801-13 22.137 0 9.3359 5.1172 17.734 13 22.137-2.2461 7.918-0.47266 16.539 4.8555 23.012-7.0664 19.066-10.672 39.133-10.672 59.66v236.28h-30.406c-3.0938 0-5.6016 2.5078-5.6016 5.6016s2.5039 5.6016 5.6016 5.6016h72.012c3.0938 0 5.6016-2.5078 5.6016-5.6016s-2.5039-5.6016-5.6016-5.6016h-30.406v-236.27c0-18.051 3-35.707 8.8438-52.57 5.3555 2.3398 11.398 2.8125 17.078 1.2031 4.3984 7.8789 12.797 13 22.137 13 9.3359 0 17.734-5.1211 22.137-13 8.6914 2.4648 18.25 0.14063 24.844-6.457 6.6016-6.5977 8.918-16.16 6.4648-24.848 3.6055-2.0156 6.5938-4.8945 8.8164-8.2852 0.92969 1.4141 1.9648 2.7812 3.1992 4.0117 6.5938 6.5977 16.148 8.9258 24.844 6.4609 4.4062 7.8789 12.805 13 22.141 13s17.734-5.1211 22.137-13c8.6953 2.4727 18.25 0.14062 24.844-6.4609 1.2344-1.2344 2.2695-2.5977 3.1992-4.0117 2.2227 3.3945 5.2109 6.2734 8.8164 8.2852-2.457 8.6875-0.13672 18.25 6.4648 24.848 6.5938 6.5977 16.16 8.9219 24.844 6.457 4.4023 7.8789 12.801 13 22.137 13 9.3398 0 17.742-5.1211 22.137-13 5.6875 1.6133 11.738 1.1367 17.102-1.2148 5.8477 16.855 8.8164 34.508 8.8164 52.582zm-228.26-327.39c-1.6914 0.44531-3.0781 1.6562-3.7461 3.2695-0.66797 1.6172-0.54688 3.4492 0.33203 4.9648 3.2383 5.5547 2.3242 12.605-2.2148 17.145-4.5391 4.543-11.59 5.4492-17.141 2.2109-1.5156-0.87891-3.3477-1-4.9648-0.33594-1.6133 0.66797-2.8203 2.0547-3.2695 3.7422-1.6406 6.2188-7.2695 10.559-13.688 10.559-6.4219 0-12.055-4.3398-13.688-10.555-0.44141-1.6914-1.6562-3.0781-3.2695-3.75-0.6875-0.28516-1.418-0.42578-2.1445-0.42578-0.98047 0-1.9531 0.25781-2.8203 0.76172-5.5352 3.2344-12.594 2.3281-17.145-2.2109-4.5391-4.543-5.4453-11.59-2.2109-17.141 0.87891-1.5117 1-3.3477 0.33203-4.9648-0.66797-1.6172-2.0547-2.8281-3.7461-3.2734-6.2109-1.6406-10.555-7.2695-10.555-13.688 0-6.4219 4.3438-12.047 10.555-13.688 1.6914-0.44531 3.0781-1.6562 3.7461-3.2695 0.66797-1.6172 0.54688-3.4531-0.33203-4.9648-3.2383-5.5547-2.3281-12.605 2.2109-17.145 4.5391-4.5391 11.59-5.4492 17.145-2.2148 1.5156 0.87891 3.3477 1.0078 4.9648 0.33594 1.6172-0.66797 2.8281-2.0547 3.2695-3.75 1.6367-6.2148 7.2695-10.555 13.688-10.555 6.4219 0 12.047 4.3438 13.688 10.559 0.44922 1.6914 1.6562 3.0742 3.2695 3.7422 1.6172 0.66797 3.4492 0.54297 4.9648-0.33594 5.5469-3.2344 12.594-2.3242 17.141 2.2148v0.003907c4.5391 4.5352 5.4531 11.586 2.2148 17.145-0.87891 1.5078-1 3.3438-0.33203 4.9609 0.66797 1.6172 2.0547 2.8242 3.7461 3.2695 6.2109 1.6406 10.555 7.2695 10.555 13.688 0 6.4297-4.3398 12.055-10.555 13.695zm109.03-20.887c3.2383 5.5547 2.3281 12.602-2.2148 17.145-4.543 4.5352-11.594 5.4453-17.141 2.2148-1.5156-0.87891-3.3477-1.0039-4.9648-0.33594-1.6133 0.66797-2.8203 2.0547-3.2695 3.7422-1.6406 6.2188-7.2656 10.562-13.688 10.562s-12.047-4.3438-13.688-10.559c-0.44922-1.6914-1.6562-3.0742-3.2695-3.7422-0.6875-0.28516-1.418-0.42578-2.1445-0.42578-0.98047 0-1.9531 0.25781-2.8203 0.76172-5.5508 3.2305-12.602 2.3203-17.141-2.2148-4.5391-4.5391-5.4531-11.59-2.2148-17.148 0.87891-1.5078 1-3.3438 0.33203-4.9609-0.66797-1.6172-2.0547-2.8242-3.7461-3.2695-6.2109-1.6406-10.555-7.2695-10.555-13.688 0-6.4219 4.3438-12.047 10.555-13.688 1.6914-0.44531 3.0781-1.6562 3.7461-3.2695 0.66797-1.6172 0.54687-3.4492-0.33203-4.9609-3.2383-5.5586-2.3242-12.609 2.2148-17.148 4.5508-4.5391 11.598-5.4414 17.141-2.2109 1.5156 0.87891 3.3477 1 4.9648 0.33594 1.6133-0.66797 2.8203-2.0547 3.2695-3.7422 1.6406-6.2227 7.2656-10.566 13.688-10.566s12.047 4.3438 13.688 10.559c0.44922 1.6914 1.6562 3.0742 3.2695 3.7422 1.6172 0.66406 3.4492 0.54297 4.9648-0.33594 5.5273-3.2305 12.59-2.3359 17.141 2.2109 4.543 4.543 5.4531 11.59 2.2148 17.145-0.87891 1.5078-1 3.3477-0.33203 4.9648 0.66797 1.6172 2.0547 2.8242 3.7461 3.2695 6.2109 1.6406 10.555 7.2695 10.555 13.688 0 6.4219-4.3438 12.047-10.555 13.688-1.6914 0.44531-3.0781 1.6562-3.7461 3.2695-0.66797 1.6211-0.54687 3.4609 0.33203 4.9688zm93.09 48.477c-1.5156-0.87891-3.3516-1-4.9648-0.33594-1.6133 0.66797-2.8281 2.0547-3.2695 3.75-1.6367 6.2148-7.2695 10.555-13.688 10.555-6.4219 0-12.047-4.3438-13.688-10.559-0.44922-1.6914-1.6562-3.0742-3.2695-3.7422-0.6875-0.28516-1.418-0.42578-2.1445-0.42578-0.98047 0-1.9531 0.25781-2.8203 0.76172-5.5391 3.2266-12.594 2.3281-17.141-2.2109-4.5391-4.5391-5.4531-11.59-2.2148-17.145 0.87891-1.5117 1-3.3477 0.33203-4.9648-0.66797-1.6172-2.0547-2.8242-3.7461-3.2695-6.2109-1.6406-10.555-7.2695-10.555-13.688 0-6.4219 4.3438-12.047 10.555-13.688 1.6914-0.44531 3.0781-1.6562 3.7461-3.2695 0.66797-1.6172 0.54688-3.4492-0.33203-4.9609-3.2383-5.5586-2.3242-12.609 2.2148-17.148 4.5391-4.5391 11.59-5.4492 17.141-2.2148 1.5156 0.87891 3.3516 1.0078 4.9648 0.33594 1.6133-0.66797 2.8203-2.0547 3.2695-3.7422 1.6406-6.2188 7.2695-10.559 13.688-10.559 6.4219 0 12.055 4.3398 13.688 10.555 0.44141 1.6914 1.6523 3.0781 3.2695 3.75 1.6133 0.66797 3.4492 0.54297 4.9648-0.33594 5.5508-3.2344 12.609-2.3242 17.145 2.2148 4.5391 4.5391 5.4453 11.59 2.2109 17.145-0.87891 1.5078-1 3.3477-0.33203 4.9648 0.66797 1.6172 2.0547 2.8242 3.7461 3.2695 6.2109 1.6406 10.555 7.2695 10.555 13.688 0 6.4219-4.3438 12.047-10.555 13.688-1.6914 0.44531-3.0781 1.6562-3.7461 3.2734s-0.54688 3.4492 0.33203 4.9648c3.0938 5.3047 2.3633 11.953-1.668 16.5-1.0352 0.48438-1.8164 1.2617-2.3711 2.1836-4.4688 3.1523-10.469 3.4883-15.316 0.66016z"
    />
  <path
      d="m413.35 378.7c3.0938 0 5.6016-2.5078 5.6016-5.6016v-77c0-3.0938-2.5039-5.6016-5.6016-5.6016h-126.7c-3.0938 0-5.6016 2.5078-5.6016 5.6016v77c0 3.0938 2.5039 5.6016 5.6016 5.6016h57.746v114.1h-30.406c-3.0938 0-5.6016 2.5078-5.6016 5.6016s2.5039 5.6016 5.6016 5.6016h72.012c3.0938 0 5.6016-2.5078 5.6016-5.6016s-2.5039-5.6016-5.6016-5.6016h-30.402v-114.1zm-121.1-77h115.5v65.801h-115.5z"
    />
  
 </g>
</svg>
